<svg xmlns="http://www.w3.org/2000/svg" width="1024" height="1024"><path fill="#7950f2" d="M940.64 82.56C888 29.984 818.688 0 750.368 0c-57.632 0-110.688 21.376-149.44 60.064L445.184 216.992c-.48.448-1.024.736-1.504 1.216-.256.256-.416.608-.672.832l.064.064-330.528 333.088c-15.232 15.136-26.272 33.984-32.416 54.56L4.96 879.008C4.896 879.744 0 901.12 0 912c0 61.824 50.208 112 112.128 112 12.32 0 36.16-5.888 37.024-6.016l271.296-71.328a128.673 128.673 0 0 0 54.56-32.512l488.416-492.256C1052.256 332.992 1042.24 184 940.64 82.56zM512.448 761.44c-2.624-28.864-10.784-57.184-23.008-84.064L792 374.848c18.496 58.432 8.992 119.552-31.552 160.128-.256.256-.576.416-.8.672l.448.416L512.8 785.344c0-7.968.384-15.776-.352-23.904zm-39.072-113.248c-11.936-19.616-25.504-38.56-42.304-55.328-19.552-19.552-41.984-34.88-65.408-47.744l305.024-305.024c23.936 10.624 46.88 25.76 67.136 46.016 17.312 17.248 30.688 36.576 40.992 56.672l-305.44 305.408zM335.552 529.984c-29.632-11.936-60.672-18.752-91.776-19.168l246.496-248.384c37.728-36.8 92.672-47.392 146.784-33.984L335.552 529.984zM133.344 955.936c-3.488.8-14.336 3.552-21.696 4.064C85.344 959.68 64 938.304 64 912c.384-5.376 2.528-14.624 3.264-17.984l33.696-122.048c36.576-.992 75.936 13.248 106.88 44.256 31.424 31.36 46.208 71.488 44.608 108.512l-119.104 31.2zm150.624-39.552c-.768-42.944-18.24-87.616-53.504-122.816-33.344-33.376-76.992-52.64-120.512-54.368l31.872-115.424c2.304-7.68 6.88-15.264 12.512-21.888 64.192-45.952 162.912-32.384 231.488 36.256 72.544 72.512 83.744 178.752 27.872 242.176-3.712 1.952-7.456 3.808-11.488 4.992l-118.24 31.072zm634.144-539.68-53.888 54.304c0-7.232.864-14.176.192-21.568-5.632-61.92-34.496-121.792-81.376-168.608-52.128-52.16-121.248-82.08-189.696-82.272l52.992-53.44C672.864 78.656 709.888 64 750.368 64c51.488 0 104.384 23.296 145.056 63.84 38.176 38.112 60.928 85.472 64.192 133.376 3.008 44.704-11.744 85.696-41.504 115.488z"/></svg>