<svg aria-hidden="true" style="width: 0; height: 0; position: absolute; overflow: hidden" version="1.1" xmlns="http://www.w3.org/2000/svg" xmlns:xlink="http://www.w3.org/1999/xlink">
<defs>
<symbol id="icon-briefcase" viewBox="0 0 24 24">
<path d="M18 7c0-1.654-1.346-3-3-3h-6c-1.654 0-3 1.346-3 3-1.654 0-3 1.346-3 3v7c0 1.654 1.346 3 3 3h12c1.654 0 3-1.346 3-3v-7c0-1.654-1.346-3-3-3zM9 6h6c0.551 0 1 0.449 1 1h-8c0-0.551 0.449-1 1-1zM19 17c0 0.551-0.449 1-1 1h-12c-0.551 0-1-0.449-1-1v-1h14v1zM5 15v-5c0-0.551 0.449-1 1-1h12c0.551 0 1 0.449 1 1v5h-14z"></path>
<path d="M13 12h-2c-0.55 0-1 0.45-1 1s0.45 1 1 1h2c0.55 0 1-0.45 1-1s-0.45-1-1-1z"></path>
</symbol>
<symbol id="icon-pencil2" viewBox="0 0 32 32">
<path d="M29.395 2.58c-1.645-1.643-3.811-2.58-5.946-2.58-1.801 0-3.459 0.668-4.67 1.877l-4.867 4.904c-0.015 0.014-0.032 0.023-0.047 0.038-0.008 0.008-0.013 0.019-0.021 0.026l0.002 0.002-10.329 10.409c-0.476 0.473-0.821 1.062-1.013 1.705l-2.349 8.508c-0.002 0.023-0.155 0.691-0.155 1.031 0 1.932 1.569 3.5 3.504 3.5 0.385 0 1.13-0.184 1.157-0.188l8.478-2.229c0.644-0.191 1.229-0.539 1.705-1.016l15.263-15.383c2.776-2.778 2.463-7.434-0.712-10.604zM16.014 23.795c-0.082-0.902-0.337-1.787-0.719-2.627l9.455-9.454c0.578 1.826 0.281 3.736-0.986 5.004-0.008 0.008-0.018 0.013-0.025 0.021l0.014 0.013-7.728 7.79c0-0.249 0.012-0.493-0.011-0.747zM14.793 20.256c-0.373-0.613-0.797-1.205-1.322-1.729-0.611-0.611-1.312-1.090-2.044-1.492l9.532-9.532c0.748 0.332 1.465 0.805 2.098 1.438 0.541 0.539 0.959 1.143 1.281 1.771l-9.545 9.544zM10.486 16.562c-0.926-0.373-1.896-0.586-2.868-0.599l7.703-7.762c1.179-1.15 2.896-1.481 4.587-1.062l-9.422 9.423zM4.167 29.873c-0.109 0.025-0.448 0.111-0.678 0.127-0.822-0.010-1.489-0.678-1.489-1.5 0.012-0.168 0.079-0.457 0.102-0.562l1.053-3.814c1.143-0.031 2.373 0.414 3.34 1.383 0.982 0.98 1.444 2.234 1.394 3.391l-3.722 0.975zM8.874 28.637c-0.024-1.342-0.57-2.738-1.672-3.838-1.042-1.043-2.406-1.645-3.766-1.699l0.996-3.607c0.072-0.24 0.215-0.477 0.391-0.684 2.006-1.436 5.091-1.012 7.234 1.133 2.267 2.266 2.617 5.586 0.871 7.568-0.116 0.061-0.233 0.119-0.359 0.156l-3.695 0.971zM28.691 11.772l-1.684 1.697c0-0.226 0.027-0.443 0.006-0.674-0.176-1.935-1.078-3.806-2.543-5.269-1.629-1.63-3.789-2.565-5.928-2.571l1.656-1.67c0.829-0.827 1.986-1.285 3.251-1.285 1.609 0 3.262 0.728 4.533 1.995 1.193 1.191 1.904 2.671 2.006 4.168 0.094 1.397-0.367 2.678-1.297 3.609z"></path>
</symbol>
<symbol id="icon-github" viewBox="0 0 32 32">
<path d="M16 0.395c-8.836 0-16 7.163-16 16 0 7.069 4.585 13.067 10.942 15.182 0.8 0.148 1.094-0.347 1.094-0.77 0-0.381-0.015-1.642-0.022-2.979-4.452 0.968-5.391-1.888-5.391-1.888-0.728-1.849-1.776-2.341-1.776-2.341-1.452-0.993 0.11-0.973 0.11-0.973 1.606 0.113 2.452 1.649 2.452 1.649 1.427 2.446 3.743 1.739 4.656 1.33 0.143-1.034 0.558-1.74 1.016-2.14-3.554-0.404-7.29-1.777-7.29-7.907 0-1.747 0.625-3.174 1.649-4.295-0.166-0.403-0.714-2.030 0.155-4.234 0 0 1.344-0.43 4.401 1.64 1.276-0.355 2.645-0.532 4.005-0.539 1.359 0.006 2.729 0.184 4.008 0.539 3.054-2.070 4.395-1.64 4.395-1.64 0.871 2.204 0.323 3.831 0.157 4.234 1.026 1.12 1.647 2.548 1.647 4.295 0 6.145-3.743 7.498-7.306 7.895 0.574 0.497 1.085 1.47 1.085 2.963 0 2.141-0.019 3.864-0.019 4.391 0 0.426 0.288 0.925 1.099 0.768 6.354-2.118 10.933-8.113 10.933-15.18 0-8.837-7.164-16-16-16z"></path>
</symbol>
<symbol id="icon-linkedin" viewBox="0 0 32 32">
<path d="M12 12h5.535v2.837h0.079c0.77-1.381 2.655-2.837 5.464-2.837 5.842 0 6.922 3.637 6.922 8.367v9.633h-5.769v-8.54c0-2.037-0.042-4.657-3.001-4.657-3.005 0-3.463 2.218-3.463 4.509v8.688h-5.767v-18z"></path>
<path d="M2 12h6v18h-6v-18z"></path>
<path d="M8 7c0 1.657-1.343 3-3 3s-3-1.343-3-3c0-1.657 1.343-3 3-3s3 1.343 3 3z"></path>
</symbol>
<symbol id="icon-mail" viewBox="0 0 32 32">
<path d="M16 0c-8.837 0-16 7.163-16 16s7.163 16 16 16 16-7.163 16-16-7.163-16-16-16zM8 8h16c0.286 0 0.563 0.061 0.817 0.177l-8.817 10.286-8.817-10.287c0.254-0.116 0.531-0.177 0.817-0.177zM6 22v-12c0-0.042 0.002-0.084 0.004-0.125l5.864 6.842-5.8 5.8c-0.045-0.167-0.069-0.34-0.069-0.517zM24 24h-16c-0.177 0-0.35-0.024-0.517-0.069l5.691-5.691 2.826 3.297 2.826-3.297 5.691 5.691c-0.167 0.045-0.34 0.069-0.517 0.069zM26 22c0 0.177-0.024 0.35-0.069 0.517l-5.8-5.8 5.865-6.842c0.003 0.041 0.004 0.083 0.004 0.125v12z"></path>
</symbol>
<symbol id="icon-html5" viewBox="0 0 48 48">
<path fill="#E65100" d="M41,5H7l3,34l14,4l14-4L41,5L41,5z"></path><path fill="#FF6D00" d="M24 8L24 39.9 35.2 36.7 37.7 8z"></path><path fill="#FFF" d="M24,25v-4h8.6l-0.7,11.5L24,35.1v-4.2l4.1-1.4l0.3-4.5H24z M32.9,17l0.3-4H24v4H32.9z"></path><path fill="#EEE" d="M24,30.9v4.2l-7.9-2.6L15.7,27h4l0.2,2.5L24,30.9z M19.1,17H24v-4h-9.1l0.7,12H24v-4h-4.6L19.1,17z"></path>
</symbol>
<symbol id="icon-css3" viewBox="0 0 48 48">
<path fill="#0277BD" d="M41,5H7l3,34l14,4l14-4L41,5L41,5z"></path><path fill="#039BE5" d="M24 8L24 39.9 35.2 36.7 37.7 8z"></path><path fill="#FFF" d="M33.1 13L24 13 24 17 28.9 17 28.6 21 24 21 24 25 28.4 25 28.1 29.5 24 30.9 24 35.1 31.9 32.5 32.6 21 32.6 21z"></path><path fill="#EEE" d="M24,13v4h-8.9l-0.3-4H24z M19.4,21l0.2,4H24v-4H19.4z M19.8,27h-4l0.3,5.5l7.9,2.6v-4.2l-4.1-1.4L19.8,27z"></path>
</symbol>
<symbol id="icon-sass" viewBox="0 0 48 48">
<path fill="#f06292" d="M39.867,25.956c-1.538,0.008-2.87,0.377-3.986,0.928c-0.408-0.815-0.822-1.532-0.891-2.065	c-0.081-0.622-0.175-0.994-0.077-1.735c0.098-0.741,0.527-1.791,0.521-1.87c-0.006-0.079-0.096-0.456-0.983-0.463	c-0.887-0.006-1.646,0.171-1.735,0.405c-0.089,0.234-0.26,0.761-0.366,1.311c-0.155,0.804-1.771,3.673-2.688,5.173	c-0.3-0.586-0.555-1.102-0.608-1.51c-0.081-0.622-0.175-0.994-0.077-1.735c0.098-0.741,0.527-1.791,0.521-1.87	c-0.006-0.079-0.096-0.456-0.983-0.463c-0.887-0.006-1.646,0.171-1.735,0.405c-0.089,0.234-0.185,0.781-0.366,1.311	c-0.182,0.529-2.329,5.314-2.892,6.555c-0.287,0.632-0.536,1.14-0.712,1.486c-0.001-0.001-0.001-0.002-0.001-0.002	s-0.011,0.023-0.029,0.062c-0.151,0.295-0.24,0.458-0.24,0.458s0.001,0.002,0.003,0.006c-0.12,0.217-0.248,0.418-0.311,0.418	c-0.044,0-0.133-0.577,0.019-1.369c0.32-1.66,1.087-4.248,1.08-4.338c-0.004-0.046,0.143-0.497-0.501-0.733	c-0.626-0.229-0.849,0.153-0.906,0.154c-0.055,0.001-0.096,0.135-0.096,0.135s0.697-2.911-1.33-2.911	c-1.268,0-3.024,1.387-3.889,2.644c-0.546,0.298-1.715,0.936-2.954,1.617c-0.476,0.262-0.962,0.529-1.423,0.783	c-0.031-0.035-0.063-0.069-0.095-0.104c-2.459-2.623-7.003-4.478-6.811-8.005c0.07-1.282,0.516-4.658,8.733-8.752	c6.731-3.354,12.12-2.431,13.051-0.386c1.33,2.923-2.88,8.354-9.87,9.138c-2.663,0.299-4.066-0.734-4.415-1.118	c-0.367-0.405-0.422-0.423-0.559-0.347c-0.223,0.124-0.082,0.481,0,0.694c0.209,0.543,1.065,1.506,2.525,1.986	c1.285,0.422,4.412,0.653,8.193-0.81c4.236-1.638,7.543-6.196,6.571-10.005c-0.988-3.874-7.412-5.148-13.492-2.988	C12.44,9.332,8.523,11.35,5.706,13.984c-3.349,3.132-3.883,5.859-3.663,6.998c0.782,4.048,6.361,6.684,8.595,8.637	c-0.11,0.061-0.214,0.118-0.308,0.17c-1.12,0.554-5.373,2.78-6.437,5.131c-1.207,2.667,0.192,4.581,1.118,4.839	c2.869,0.798,5.813-0.638,7.396-2.998c1.582-2.359,1.389-5.432,0.663-6.834c-0.009-0.017-0.019-0.034-0.028-0.052	c0.289-0.171,0.584-0.345,0.876-0.517c0.57-0.335,1.13-0.647,1.615-0.911c-0.272,0.744-0.471,1.637-0.574,2.926	c-0.122,1.514,0.499,3.471,1.311,4.241c0.358,0.339,0.788,0.347,1.06,0.347c0.945,0,1.376-0.786,1.851-1.716	c0.582-1.14,1.099-2.468,1.099-2.468s-0.648,3.586,1.118,3.586c0.644,0,1.291-0.835,1.58-1.26c0.001,0.005,0.001,0.007,0.001,0.007	s0.017-0.028,0.05-0.083c0.067-0.102,0.105-0.167,0.105-0.167s0.001-0.007,0.003-0.019c0.259-0.449,0.833-1.473,1.693-3.162	c1.112-2.182,2.178-4.916,2.178-4.916s0.099,0.668,0.424,1.774c0.191,0.65,0.597,1.369,0.918,2.059	c-0.258,0.358-0.416,0.563-0.416,0.563s0.001,0.004,0.004,0.011c-0.206,0.274-0.437,0.569-0.679,0.857	c-0.878,1.045-1.923,2.239-2.063,2.583c-0.165,0.406-0.126,0.704,0.193,0.945c0.233,0.175,0.647,0.203,1.08,0.174	c0.789-0.053,1.343-0.249,1.617-0.368c0.427-0.151,0.924-0.388,1.39-0.731c0.861-0.633,1.38-1.538,1.33-2.738	c-0.028-0.661-0.238-1.316-0.505-1.934c0.078-0.112,0.156-0.226,0.235-0.34c1.357-1.984,2.41-4.164,2.41-4.164	s0.099,0.668,0.424,1.774c0.164,0.559,0.489,1.17,0.781,1.768c-1.276,1.037-2.067,2.242-2.342,3.032	c-0.508,1.462-0.11,2.124,0.636,2.275c0.338,0.068,0.816-0.087,1.175-0.239c0.447-0.148,0.984-0.395,1.486-0.764	c0.861-0.633,1.689-1.519,1.639-2.718c-0.023-0.546-0.171-1.088-0.372-1.608c1.082-0.451,2.482-0.701,4.266-0.493	c3.827,0.447,4.577,2.836,4.434,3.836c-0.144,1-0.946,1.55-1.215,1.716c-0.268,0.166-0.35,0.224-0.328,0.347	c0.033,0.179,0.157,0.173,0.386,0.134c0.315-0.053,2.009-0.813,2.082-2.659C46.089,28.509,43.844,25.935,39.867,25.956z M10.37,35.9	c-1.268,1.383-3.038,1.905-3.798,1.465c-0.82-0.475-0.495-2.511,1.06-3.979c0.948-0.894,2.172-1.718,2.984-2.225	c0.185-0.111,0.456-0.274,0.786-0.472c0.055-0.031,0.086-0.048,0.086-0.048l-0.001-0.002c0.064-0.038,0.129-0.077,0.196-0.118	C12.25,32.61,11.701,34.449,10.37,35.9z M19.605,29.623c-0.441,1.076-1.365,3.83-1.928,3.682c-0.483-0.127-0.777-2.22-0.096-4.28	c0.342-1.037,1.074-2.276,1.504-2.757c0.692-0.774,1.454-1.027,1.639-0.713C20.959,25.955,19.882,28.948,19.605,29.623z M27.234,33.263c-0.187,0.098-0.359,0.159-0.438,0.112c-0.059-0.035,0.077-0.164,0.077-0.164s0.954-1.027,1.33-1.494	c0.219-0.272,0.472-0.595,0.748-0.955c0.002,0.036,0.003,0.072,0.003,0.107C28.952,32.099,27.764,32.929,27.234,33.263z M33.111,31.923c-0.14-0.099-0.116-0.42,0.343-1.421c0.18-0.393,0.592-1.054,1.306-1.686c0.083,0.26,0.133,0.509,0.132,0.741	C34.883,31.105,33.779,31.683,33.111,31.923z"></path>
</symbol>
<symbol id="icon-gulp" viewBox="0 0 32 32">
<path fill="#fa5252" d="M 22.154297 1 C 22.113531 1.0015781 22.081797 1.0129531 22.060547 1.0332031 L 18.345703 5.4453125 L 17.587891 8.0507812 C 17.072891 8.0337813 16.541094 8.0273438 15.996094 8.0273438 C 12.135094 8.0273437 9 8.4363594 9 8.9433594 C 9 10.153359 22.990234 10.153359 22.990234 8.9433594 C 22.990234 8.5683594 21.315391 8.2515625 18.900391 8.1015625 L 19.5 5.9570312 L 22.974609 1.7773438 L 22.980469 1.7714844 C 23.058469 1.6904844 22.906203 1.447375 22.658203 1.234375 C 22.472203 1.073875 22.276594 0.99526563 22.154297 1 z M 17.302734 9.0761719 L 17.289062 9.1171875 C 17.283062 9.1221875 17.283203 9.1287656 17.283203 9.1347656 C 17.283203 9.2097656 17.586078 9.2714844 17.955078 9.2714844 C 18.324078 9.2714844 18.628906 9.2097656 18.628906 9.1347656 L 18.640625 9.0878906 C 18.737625 9.1228906 18.791016 9.1629844 18.791016 9.2089844 C 18.791016 9.3299844 18.416219 9.4288281 17.949219 9.4238281 C 17.495219 9.4238281 17.119141 9.3319375 17.119141 9.2109375 C 17.119141 9.1589375 17.193734 9.1111719 17.302734 9.0761719 z M 22.912109 9.4199219 C 21.061109 10.406922 10.949797 10.413594 9.0917969 9.4335938 L 9.9140625 16.666016 C 10.271062 15.513016 11.173938 13.956375 12.335938 13.484375 C 12.716938 13.328375 13.103797 13.329109 13.466797 13.537109 C 13.781797 13.710109 14.048125 14.072797 14.078125 14.216797 C 14.151125 14.591797 13.957641 14.740234 13.806641 14.740234 C 13.624641 14.740234 13.485531 14.476312 13.394531 14.320312 C 13.146531 13.899313 12.771094 13.881203 12.371094 14.158203 C 11.953094 14.446203 11.589938 14.930563 11.335938 15.351562 C 11.026938 15.858562 10.766375 16.417563 10.609375 16.976562 C 10.518375 17.299563 10.435219 17.817047 10.574219 18.123047 C 10.635219 18.250047 10.725094 18.330078 10.871094 18.330078 C 11.174094 18.330078 11.614172 17.950047 11.826172 17.748047 C 12.098172 17.489047 12.449031 17.085172 12.582031 16.826172 L 12.898438 15.933594 C 13.055438 15.541594 13.496094 15.610594 13.496094 15.933594 C 13.496094 16.521594 13.273578 16.717594 12.892578 17.933594 C 12.541578 19.057594 12.431641 19.421875 12.431641 19.421875 C 12.389641 19.582875 12.225781 19.853516 12.050781 19.853516 C 11.977781 19.853516 11.924531 19.829203 11.894531 19.783203 C 11.833531 19.702203 11.839703 19.479875 11.845703 19.421875 C 11.857703 19.237875 12.226109 18.14175 12.287109 17.96875 C 12.166109 18.09575 12.039391 18.223609 11.900391 18.349609 C 11.573391 18.643609 11.047609 19.029297 10.599609 19.029297 C 10.393609 19.029297 10.261766 18.976625 10.134766 18.890625 L 10.59375 23.478516 C 10.71475 23.766516 12.966641 24.464844 15.931641 24.464844 C 18.902641 24.464844 21.152578 23.761516 21.267578 23.478516 L 21.927734 18.027344 C 21.582734 18.327344 21.184188 18.696859 20.742188 18.880859 C 20.415187 19.013859 19.689453 19.098781 19.689453 18.550781 C 19.689453 18.250781 20.240547 17.6985 20.560547 17.3125 C 20.645547 17.2145 20.84375 16.972703 20.84375 16.845703 C 20.84375 16.678703 20.481719 16.717281 20.136719 16.988281 C 19.942719 17.144281 19.760375 17.352828 19.609375 17.548828 C 19.349375 17.894828 19.210703 18.193406 19.095703 18.441406 C 18.720703 19.259406 18.847922 18.936984 18.544922 19.708984 C 18.241922 20.475984 18.291469 20.388625 18.230469 20.515625 C 18.176469 20.625625 18.097281 20.718391 17.988281 20.775391 C 17.873281 20.833391 17.716141 20.826812 17.619141 20.757812 C 17.565141 20.722812 17.539062 20.647922 17.539062 20.544922 C 17.539062 20.492922 17.546594 20.440672 17.558594 20.388672 C 17.649594 20.036672 18.030797 19.346109 18.466797 18.412109 C 18.563797 18.199109 18.526672 18.262297 18.513672 18.279297 C 18.138672 18.625297 17.853578 18.792766 17.642578 18.884766 C 17.291578 19.034766 16.855625 19.034438 16.765625 18.648438 C 16.759625 18.625438 16.759906 18.601125 16.753906 18.578125 C 16.039906 19.108125 15.283922 19.252328 15.544922 18.111328 C 15.266922 18.584328 14.7815 18.970703 14.1875 18.970703 C 13.9395 18.970703 13.757969 18.890734 13.667969 18.677734 C 13.528969 18.360734 13.746312 17.817688 13.945312 17.304688 C 14.048312 17.045687 14.188953 16.734094 14.376953 16.371094 C 14.473953 16.175094 14.629937 16.059328 14.835938 16.111328 C 14.871937 16.123328 14.903594 16.135344 14.933594 16.152344 C 15.090594 16.256344 15.030172 16.410406 14.951172 16.566406 C 14.721172 16.998406 14.521672 17.315625 14.388672 17.765625 C 14.334672 17.955625 14.266516 18.285156 14.478516 18.285156 C 14.623516 18.285156 14.762484 18.238484 14.896484 18.146484 C 15.174484 17.950484 15.398359 17.657141 15.568359 17.369141 C 15.689359 17.162141 15.835203 16.891156 15.908203 16.660156 C 15.938203 16.562156 15.975578 16.469813 16.017578 16.382812 C 16.084578 16.238813 16.174031 16.089844 16.332031 16.089844 C 16.411031 16.089844 16.476391 16.118781 16.525391 16.175781 C 16.628391 16.302781 16.605781 16.433266 16.550781 16.572266 C 16.429781 16.895266 16.266813 17.184156 16.132812 17.535156 C 16.053812 17.737156 15.96875 17.995984 15.96875 18.208984 C 15.96875 18.404984 16.192859 18.358344 16.380859 18.277344 C 16.525859 18.214344 16.670969 18.117531 16.792969 18.019531 C 16.865969 17.737531 16.846625 17.799891 18.390625 14.087891 C 18.469625 13.897891 18.614766 13.816406 18.759766 13.816406 C 18.832766 13.816406 18.892125 13.840859 18.953125 13.880859 C 19.056125 13.955859 19.057625 14.115328 19.015625 14.236328 C 18.973625 14.346328 18.978187 14.311797 18.742188 14.841797 C 18.427187 15.538797 18.222359 16.041641 17.943359 16.681641 C 17.828359 16.946641 17.477969 17.770797 17.417969 17.966797 C 17.381969 18.093797 17.338516 18.300781 17.478516 18.300781 C 17.805516 18.300781 18.646953 17.545312 18.876953 17.320312 C 18.888953 17.303313 18.907641 17.297156 18.931641 17.285156 C 18.967641 17.175156 19.003203 17.07275 19.033203 16.96875 C 19.118203 16.74975 19.197469 16.494406 19.355469 16.316406 C 19.403469 16.258406 19.457578 16.224609 19.517578 16.224609 C 19.686578 16.224609 19.771484 16.293078 19.771484 16.455078 C 19.771484 16.518078 19.730078 16.7495 19.705078 16.8125 C 19.790078 16.7265 19.879563 16.640688 19.976562 16.554688 C 20.884563 15.753687 21.53125 16.162406 21.53125 16.566406 C 21.53125 16.992406 20.993266 17.585062 20.697266 17.914062 C 20.600266 18.024062 20.400531 18.225203 20.394531 18.283203 C 20.394531 18.358203 20.448344 18.388672 20.527344 18.388672 C 20.648344 18.388672 20.914719 18.186188 21.011719 18.117188 C 21.314719 17.892187 21.724625 17.546688 22.015625 17.304688 L 22.912109 9.4199219 z M 10.929688 24.03125 L 11.832031 25.496094 L 12.183594 30.072266 C 12.183594 30.585266 13.895953 31 16.001953 31 C 18.107953 31 19.820312 30.585266 19.820312 30.072266 L 20.099609 25.449219 L 20.951172 24.03125 C 18.554172 24.99425 13.423687 25.02825 10.929688 24.03125 z"></path>
</symbol>
<symbol id="icon-js" viewBox="0 0 48 48">
<path fill="#ffd600" d="M6,42V6h36v36H6z"></path><path fill="#000001" d="M29.538 32.947c.692 1.124 1.444 2.201 3.037 2.201 1.338 0 2.04-.665 2.04-1.585 0-1.101-.726-1.492-2.198-2.133l-.807-.344c-2.329-.988-3.878-2.226-3.878-4.841 0-2.41 1.845-4.244 4.728-4.244 2.053 0 3.528.711 4.592 2.573l-2.514 1.607c-.553-.988-1.151-1.377-2.078-1.377-.946 0-1.545.597-1.545 1.377 0 .964.6 1.354 1.985 1.951l.807.344C36.452 29.645 38 30.839 38 33.523 38 36.415 35.716 38 32.65 38c-2.999 0-4.702-1.505-5.65-3.368L29.538 32.947zM17.952 33.029c.506.906 1.275 1.603 2.381 1.603 1.058 0 1.667-.418 1.667-2.043V22h3.333v11.101c0 3.367-1.953 4.899-4.805 4.899-2.577 0-4.437-1.746-5.195-3.368L17.952 33.029z"></path>
</symbol>
<symbol id="icon-tailwindcss" viewBox="0 0 48 48">
<path fill="#00acc1" d="M24,9.604c-6.4,0-10.4,3.199-12,9.597c2.4-3.199,5.2-4.398,8.4-3.599 c1.826,0.456,3.131,1.781,4.576,3.247C27.328,21.236,30.051,24,36,24c6.4,0,10.4-3.199,12-9.598c-2.4,3.199-5.2,4.399-8.4,3.6 c-1.825-0.456-3.13-1.781-4.575-3.247C32.672,12.367,29.948,9.604,24,9.604L24,9.604z M12,24c-6.4,0-10.4,3.199-12,9.598 c2.4-3.199,5.2-4.399,8.4-3.599c1.825,0.457,3.13,1.781,4.575,3.246c2.353,2.388,5.077,5.152,11.025,5.152 c6.4,0,10.4-3.199,12-9.598c-2.4,3.199-5.2,4.399-8.4,3.599c-1.826-0.456-3.131-1.781-4.576-3.246C20.672,26.764,17.949,24,12,24 L12,24z"></path>
</symbol>
<symbol id="icon-npm" viewBox="0 0 32 32">
<path fill="#cb3837" style="fill: var(--color1, #cb3837)" d="M0 9.779v10.667h8.888v1.776h7.112v-1.776h16v-10.667zM8.888 18.664h-1.776v-5.333h-1.78v5.333h-3.552v-7.108h7.108zM14.221 18.664v1.781h-3.553v-8.889h7.112v7.109h-3.559zM30.223 18.664h-1.773v-5.333h-1.781v5.333h-1.78v-5.333h-1.773v5.333h-3.561v-7.108h10.669zM14.22 13.333h1.78v3.556h-1.78z"></path>
</symbol>
<symbol id="icon-git" viewBox="0 0 32 32">
<path fill="#f05032" style="fill: var(--color1, #f05032)" d="M31.395 14.573l-13.972-13.971c-0.805-0.804-2.109-0.804-2.917 0l-2.895 2.9 3.68 3.68c0.86-0.287 1.839-0.093 2.519 0.588 0.688 0.687 0.877 1.677 0.584 2.533l3.544 3.547c0.86-0.297 1.849-0.104 2.533 0.58 0.961 0.96 0.961 2.512 0 3.472-0.959 0.959-2.508 0.959-3.467 0-0.719-0.721-0.899-1.783-0.539-2.661l-3.319-3.301v8.7c0.235 0.115 0.456 0.271 0.651 0.464 0.951 0.961 0.951 2.511 0 3.467-0.959 0.961-2.519 0.961-3.479 0-0.959-0.959-0.959-2.505 0-3.464 0.243-0.24 0.516-0.421 0.807-0.541v-8.785c-0.289-0.121-0.565-0.296-0.8-0.535-0.727-0.727-0.901-1.789-0.528-2.679l-3.616-3.633-9.581 9.575c-0.8 0.807-0.8 2.112 0 2.919l13.973 13.969c0.805 0.805 2.109 0.805 2.915 0l13.907-13.907c0.807-0.804 0.807-2.109 0-2.916z"></path>
</symbol>
<symbol id="icon-location" viewBox="0 0 32 32">
<path d="M16 0c-5.523 0-10 4.477-10 10 0 10 10 22 10 22s10-12 10-22c0-5.523-4.477-10-10-10zM16 16c-3.314 0-6-2.686-6-6s2.686-6 6-6 6 2.686 6 6-2.686 6-6 6z"></path>
</symbol>
<symbol id="icon-envelope" viewBox="0 0 32 32">
<path d="M29 4h-26c-1.657 0-3 1.343-3 3v18c0 1.656 1.343 3 3 3h26c1.657 0 3-1.344 3-3v-18c0-1.657-1.343-3-3-3zM2.741 25.99l-0.731-0.732 8.249-8.248 0.731 0.732-8.249 8.248zM29.259 25.99l-8.249-8.248 0.731-0.732 8.249 8.248-0.731 0.732zM17 19.325v0.675h-2v-0.675l-12.997-12.050 1.272-1.272 12.725 11.798 12.725-11.798 1.272 1.272-12.997 12.050z"></path>
</symbol>
<symbol id="icon-chat" viewBox="0 0 32 32">
<path d="M25.785 4.952h-19.57c-1.235 0-2.236 1.002-2.236 2.236v12.488c0 1.234 1.001 2.236 2.236 2.236h3.729l0.001 5.137 5.704-5.137h10.137c1.236 0 2.236-1.002 2.236-2.236v-12.488c-0.001-1.234-1.001-2.236-2.237-2.236zM10 13.969c-0.553 0-1-0.448-1-1 0-0.553 0.447-1 1-1 0.552 0 1 0.447 1 1 0 0.552-0.448 1-1 1zM14 13.927c-0.553 0-1-0.448-1-1 0-0.553 0.447-1 1-1 0.552 0 1 0.447 1 1 0 0.552-0.448 1-1 1zM18.020 13.948c-0.552 0-1-0.447-1-1 0-0.552 0.448-1 1-1 0.553 0 1 0.448 1 1s-0.448 1-1 1zM22 13.969c-0.553 0-1-0.448-1-1 0-0.553 0.447-1 1-1 0.552 0 1 0.447 1 1 0 0.552-0.448 1-1 1z"></path>
</symbol>
<symbol id="icon-postman" viewBox="0 0 32 32">
<path fill="#ff6c37" style="fill: var(--color1, #ff6c37)" d="M18.036 0.132c-8.763-1.124-16.78 5.068-17.904 13.832-1.124 8.763 5.067 16.779 13.831 17.904 8.764 1.124 16.783-5.068 17.904-13.832 1.125-8.763-5.065-16.779-13.831-17.904zM21.331 10.112c-0.309 0.004-0.588 0.131-0.791 0.333v0l-5.937 5.937-1.267-1.267c5.852-5.835 6.907-5.891 7.995-5.004zM14.847 16.593l5.92-5.92c0.151-0.158 0.363-0.256 0.598-0.256 0.457 0 0.827 0.37 0.827 0.827 0 0.254-0.114 0.481-0.294 0.633l-0.001 0.001-6.265 5.5zM15.287 17.519l-1.467 0.317c-0.005 0.001-0.011 0.002-0.018 0.002-0.031 0-0.058-0.018-0.072-0.044l-0-0c-0.007-0.012-0.011-0.025-0.011-0.040 0-0.022 0.009-0.043 0.024-0.057v0l0.86-0.86zM11.549 16.907l1.563-1.563 1.172 1.171-2.639 0.568c-0.007 0.002-0.016 0.003-0.025 0.003-0.039 0-0.072-0.022-0.088-0.055l-0-0.001c-0.010-0.015-0.015-0.033-0.015-0.052 0-0.029 0.013-0.054 0.032-0.072l0-0zM6.688 24.984c-0.052-0.005-0.092-0.048-0.092-0.101 0-0.003 0-0.007 0-0.010l-0 0c0.003-0.024 0.013-0.045 0.029-0.061v0h0.003l1.261-1.261 1.629 1.629zM9.921 23.309c-0.098 0.052-0.164 0.153-0.164 0.27 0 0.025 0.003 0.050 0.009 0.073l-0-0.002 0.271 1.153c0.003 0.012 0.005 0.026 0.005 0.040 0 0.092-0.075 0.167-0.167 0.167-0.047 0-0.089-0.019-0.119-0.050l-0-0h-0.004l-1.637-1.639 5.016-5.011 2.427-0.524 1.165 1.165c-1.673 1.469-3.961 2.935-6.8 4.357zM16.96 18.739h-0.003l-1.119-1.119 6.265-5.5c0.058-0.052 0.11-0.107 0.157-0.167l0.002-0.003c-0.197 1.793-2.705 4.327-5.303 6.788zM21.836 10.125l-0.004-0.003c-0.437-0.439-0.707-1.045-0.707-1.714 0-1.342 1.088-2.429 2.429-2.429 0.594 0 1.138 0.213 1.561 0.567l-0.004-0.003-2.147 2.151c-0.029 0.029-0.047 0.069-0.047 0.113s0.018 0.084 0.047 0.113v0l1.663 1.663c-0.314 0.159-0.685 0.253-1.077 0.253-0.669 0-1.275-0.271-1.713-0.71v0zM25.273 10.125c-0.107 0.106-0.226 0.202-0.353 0.285l-0.009 0.005h-0.001l-1.609-1.609 2.044-2.044c0.881 0.96 0.849 2.443-0.072 3.363zM25.14 8.067c-0.048 0.035-0.079 0.091-0.079 0.154 0 0.020 0.003 0.039 0.008 0.056l-0-0.001c0.036 0.072 0.057 0.156 0.057 0.246 0 0.135-0.048 0.259-0.129 0.355l0.001-0.001c-0.025 0.032-0.040 0.072-0.040 0.116 0 0.059 0.028 0.112 0.071 0.146l0 0c0.031 0.024 0.069 0.039 0.112 0.040h0c0.057-0.001 0.107-0.026 0.141-0.066l0-0c0.133-0.159 0.213-0.365 0.213-0.589 0-0.15-0.036-0.292-0.1-0.417l0.002 0.005c-0.034-0.048-0.089-0.079-0.151-0.079-0.040 0-0.078 0.013-0.108 0.035l0.001-0z"></path>
</symbol>
<symbol id="icon-mysql" viewBox="0 0 32 32">
<path fill="#4479a1" style="fill: var(--color1, #4479a1)" d="M21.873 7.568c-0.153 0-0.257 0.019-0.365 0.044v0.017h0.019c0.072 0.139 0.195 0.24 0.285 0.364 0.072 0.143 0.133 0.285 0.205 0.427l0.019-0.020c0.125-0.088 0.187-0.229 0.187-0.444-0.053-0.063-0.061-0.125-0.107-0.187-0.053-0.089-0.168-0.133-0.243-0.201zM7.693 25.16h-1.236c-0.040-2.083-0.164-4.040-0.36-5.88h-0.011l-1.88 5.88h-0.94l-1.867-5.88h-0.013c-0.137 1.764-0.224 3.724-0.26 5.88h-1.127c0.073-2.621 0.256-5.080 0.547-7.373h1.533l1.78 5.419h0.011l1.796-5.419h1.46c0.323 2.687 0.512 5.147 0.567 7.373zM13.049 19.72c-0.504 2.727-1.168 4.711-1.989 5.947-0.643 0.955-1.347 1.431-2.111 1.431-0.204 0-0.453-0.061-0.755-0.184v-0.659c0.147 0.023 0.32 0.035 0.515 0.035 0.357 0 0.644-0.1 0.863-0.296 0.263-0.24 0.393-0.509 0.393-0.807 0-0.207-0.103-0.627-0.307-1.259l-1.352-4.208h1.213l0.969 3.147c0.219 0.715 0.311 1.213 0.273 1.497 0.533-1.419 0.904-2.969 1.113-4.644zM29.483 25.16h-3.507v-7.373h1.18v6.467h2.327zM25.056 25.34l-1.355-0.667c0.12-0.101 0.236-0.211 0.34-0.333 0.577-0.675 0.864-1.677 0.864-3.004 0-2.44-0.957-3.661-2.873-3.661-0.939 0-1.672 0.309-2.2 0.929-0.573 0.677-0.861 1.675-0.861 2.993 0 1.296 0.253 2.248 0.765 2.853 0.467 0.547 1.169 0.82 2.111 0.82 0.352 0 0.675-0.044 0.967-0.131l1.767 1.029zM20.667 23.684c-0.3-0.48-0.449-1.253-0.449-2.315 0-1.857 0.565-2.787 1.693-2.787 0.591 0 1.027 0.223 1.303 0.667 0.299 0.483 0.448 1.248 0.448 2.297 0 1.872-0.565 2.811-1.693 2.811-0.593 0-1.027-0.223-1.301-0.673zM18.456 23.117c0 0.627-0.229 1.141-0.688 1.541s-1.071 0.6-1.845 0.6c-0.724 0-1.419-0.229-2.097-0.687l0.316-0.635c0.584 0.293 1.111 0.437 1.587 0.437 0.443 0 0.791-0.097 1.044-0.293 0.251-0.196 0.4-0.472 0.4-0.82 0-0.44-0.307-0.813-0.864-1.127-0.517-0.284-1.551-0.876-1.551-0.876-0.563-0.409-0.843-0.848-0.843-1.569 0-0.6 0.209-1.080 0.627-1.447 0.42-0.371 0.96-0.553 1.627-0.553 0.683 0 1.307 0.181 1.867 0.547l-0.284 0.635c-0.48-0.203-0.953-0.307-1.419-0.307-0.377 0-0.669 0.091-0.872 0.275-0.204 0.181-0.331 0.413-0.331 0.699 0 0.437 0.312 0.813 0.888 1.133 0.524 0.287 1.583 0.893 1.583 0.893 0.577 0.407 0.864 0.84 0.856 1.553zM30.965 15.315c-0.713-0.019-1.267 0.053-1.729 0.251-0.133 0.053-0.347 0.053-0.365 0.223 0.073 0.071 0.084 0.187 0.147 0.285 0.107 0.179 0.291 0.417 0.461 0.543 0.187 0.147 0.373 0.288 0.569 0.413 0.347 0.213 0.74 0.34 1.080 0.555 0.193 0.125 0.391 0.284 0.587 0.417 0.097 0.067 0.16 0.187 0.285 0.229v-0.027c-0.061-0.080-0.080-0.196-0.14-0.285-0.089-0.089-0.179-0.169-0.267-0.257-0.259-0.347-0.58-0.649-0.927-0.9-0.285-0.195-0.909-0.467-1.027-0.793l-0.017-0.019c0.195-0.017 0.427-0.088 0.613-0.141 0.303-0.080 0.58-0.063 0.893-0.141 0.141-0.036 0.284-0.080 0.427-0.125v-0.080c-0.16-0.16-0.28-0.377-0.445-0.527-0.453-0.393-0.956-0.776-1.472-1.097-0.28-0.179-0.635-0.293-0.929-0.445-0.107-0.053-0.285-0.080-0.347-0.169-0.16-0.195-0.253-0.453-0.367-0.685-0.256-0.491-0.507-1.033-0.729-1.551-0.16-0.349-0.257-0.697-0.453-1.017-0.92-1.516-1.916-2.435-3.448-3.333-0.329-0.187-0.724-0.267-1.141-0.365-0.223-0.011-0.445-0.027-0.667-0.036-0.147-0.063-0.288-0.232-0.413-0.313-0.507-0.32-1.819-1.013-2.192-0.096-0.24 0.579 0.356 1.149 0.563 1.443 0.153 0.204 0.347 0.437 0.453 0.667 0.063 0.155 0.080 0.313 0.143 0.475 0.141 0.392 0.276 0.829 0.463 1.196 0.097 0.187 0.204 0.383 0.329 0.551 0.072 0.097 0.195 0.143 0.223 0.303-0.125 0.181-0.133 0.445-0.205 0.667-0.32 1.009-0.195 2.257 0.259 3 0.143 0.221 0.483 0.712 0.937 0.524 0.4-0.16 0.312-0.667 0.427-1.113 0.027-0.107 0.009-0.177 0.064-0.249v0.020c0.125 0.251 0.251 0.489 0.365 0.74 0.275 0.437 0.755 0.891 1.156 1.193 0.213 0.16 0.383 0.437 0.649 0.536v-0.027h-0.020c-0.057-0.077-0.133-0.115-0.205-0.177-0.16-0.16-0.34-0.356-0.467-0.533-0.373-0.503-0.703-1.053-0.996-1.624-0.147-0.28-0.269-0.581-0.387-0.857-0.053-0.107-0.053-0.267-0.143-0.32-0.133 0.195-0.329 0.364-0.427 0.604-0.169 0.384-0.187 0.856-0.251 1.347-0.036 0.009-0.019 0-0.036 0.019-0.285-0.069-0.383-0.365-0.489-0.613-0.267-0.633-0.311-1.651-0.080-2.38 0.063-0.187 0.329-0.776 0.223-0.955-0.056-0.169-0.232-0.267-0.329-0.404-0.116-0.165-0.24-0.38-0.32-0.569-0.213-0.499-0.32-1.051-0.552-1.549-0.107-0.231-0.293-0.472-0.445-0.684-0.169-0.24-0.356-0.409-0.491-0.693-0.044-0.097-0.107-0.259-0.036-0.365 0.019-0.072 0.056-0.1 0.125-0.12 0.117-0.096 0.447 0.029 0.563 0.083 0.329 0.133 0.607 0.259 0.883 0.445 0.125 0.088 0.26 0.257 0.42 0.301h0.187c0.285 0.063 0.607 0.019 0.873 0.097 0.473 0.152 0.9 0.373 1.283 0.613 1.168 0.741 2.128 1.793 2.78 3.048 0.107 0.205 0.153 0.393 0.251 0.607 0.187 0.44 0.417 0.884 0.607 1.309 0.187 0.42 0.367 0.848 0.635 1.196 0.133 0.187 0.669 0.284 0.909 0.381 0.177 0.080 0.453 0.153 0.613 0.251 0.307 0.187 0.605 0.4 0.893 0.605 0.147 0.101 0.591 0.324 0.617 0.504z"></path>
</symbol>
</defs>
</svg>