<svg aria-hidden="true" style="width:0;height:0;position:absolute;overflow:hidden" xmlns="http://www.w3.org/2000/svg"><defs><symbol id="icon-briefcase" viewBox="0 0 24 24"><path d="M18 7c0-1.654-1.346-3-3-3H9C7.346 4 6 5.346 6 7c-1.654 0-3 1.346-3 3v7c0 1.654 1.346 3 3 3h12c1.654 0 3-1.346 3-3v-7c0-1.654-1.346-3-3-3zM9 6h6c.551 0 1 .449 1 1H8c0-.551.449-1 1-1zm10 11c0 .551-.449 1-1 1H6c-.551 0-1-.449-1-1v-1h14v1zM5 15v-5c0-.551.449-1 1-1h12c.551 0 1 .449 1 1v5H5z"/><path d="M13 12h-2c-.55 0-1 .45-1 1s.45 1 1 1h2c.55 0 1-.45 1-1s-.45-1-1-1z"/></symbol><symbol id="icon-pencil2" viewBox="0 0 32 32"><path d="M29.395 2.58C27.75.937 25.584 0 23.449 0c-1.801 0-3.459.668-4.67 1.877l-4.867 4.904c-.015.014-.032.023-.047.038-.008.008-.013.019-.021.026l.002.002L3.517 17.256a4.023 4.023 0 0 0-1.013 1.705L.155 27.469C.153 27.492 0 28.16 0 28.5 0 30.432 1.569 32 3.504 32c.385 0 1.13-.184 1.157-.188l8.478-2.229a4.021 4.021 0 0 0 1.705-1.016l15.263-15.383c2.776-2.778 2.463-7.434-.712-10.604zM16.014 23.795a8.145 8.145 0 0 0-.719-2.627l9.455-9.454c.578 1.826.281 3.736-.986 5.004-.008.008-.018.013-.025.021l.014.013-7.728 7.79c0-.249.012-.493-.011-.747zm-1.221-3.539c-.373-.613-.797-1.205-1.322-1.729-.611-.611-1.312-1.09-2.044-1.492l9.532-9.532a6.939 6.939 0 0 1 2.098 1.438 6.976 6.976 0 0 1 1.281 1.771l-9.545 9.544zm-4.307-3.694a7.976 7.976 0 0 0-2.868-.599l7.703-7.762c1.179-1.15 2.896-1.481 4.587-1.062l-9.422 9.423zM4.167 29.873c-.109.025-.448.111-.678.127A1.505 1.505 0 0 1 2 28.5c.012-.168.079-.457.102-.562l1.053-3.814c1.143-.031 2.373.414 3.34 1.383.982.98 1.444 2.234 1.394 3.391l-3.722.975zm4.707-1.236c-.024-1.342-.57-2.738-1.672-3.838-1.042-1.043-2.406-1.645-3.766-1.699l.996-3.607c.072-.24.215-.477.391-.684 2.006-1.436 5.091-1.012 7.234 1.133 2.267 2.266 2.617 5.586.871 7.568a1.97 1.97 0 0 1-.359.156l-3.695.971zm19.817-16.865-1.684 1.697c0-.226.027-.443.006-.674-.176-1.935-1.078-3.806-2.543-5.269-1.629-1.63-3.789-2.565-5.928-2.571l1.656-1.67C21.027 2.458 22.184 2 23.449 2c1.609 0 3.262.728 4.533 1.995 1.193 1.191 1.904 2.671 2.006 4.168.094 1.397-.367 2.678-1.297 3.609z"/></symbol><symbol id="icon-github" viewBox="0 0 32 32"><path d="M16 .395c-8.836 0-16 7.163-16 16 0 7.069 4.585 13.067 10.942 15.182.8.148 1.094-.347 1.094-.77 0-.381-.015-1.642-.022-2.979-4.452.968-5.391-1.888-5.391-1.888-.728-1.849-1.776-2.341-1.776-2.341-1.452-.993.11-.973.11-.973 1.606.113 2.452 1.649 2.452 1.649 1.427 2.446 3.743 1.739 4.656 1.33.143-1.034.558-1.74 1.016-2.14-3.554-.404-7.29-1.777-7.29-7.907 0-1.747.625-3.174 1.649-4.295-.166-.403-.714-2.03.155-4.234 0 0 1.344-.43 4.401 1.64a15.353 15.353 0 0 1 4.005-.539c1.359.006 2.729.184 4.008.539 3.054-2.07 4.395-1.64 4.395-1.64.871 2.204.323 3.831.157 4.234 1.026 1.12 1.647 2.548 1.647 4.295 0 6.145-3.743 7.498-7.306 7.895.574.497 1.085 1.47 1.085 2.963 0 2.141-.019 3.864-.019 4.391 0 .426.288.925 1.099.768C27.421 29.457 32 23.462 32 16.395c0-8.837-7.164-16-16-16z"/></symbol><symbol id="icon-linkedin" viewBox="0 0 32 32"><path d="M12 12h5.535v2.837h.079c.77-1.381 2.655-2.837 5.464-2.837C28.92 12 30 15.637 30 20.367V30h-5.769v-8.54c0-2.037-.042-4.657-3.001-4.657-3.005 0-3.463 2.218-3.463 4.509V30H12V12zM2 12h6v18H2V12zM8 7a3 3 0 1 1-6 0 3 3 0 0 1 6 0z"/></symbol><symbol id="icon-mail" viewBox="0 0 32 32"><path d="M16 0C7.163 0 0 7.163 0 16s7.163 16 16 16 16-7.163 16-16S24.837 0 16 0zM8 8h16c.286 0 .563.061.817.177L16 18.463 7.183 8.176c.254-.116.531-.177.817-.177zM6 22V10c0-.042.002-.084.004-.125l5.864 6.842-5.8 5.8A1.983 1.983 0 0 1 5.999 22zm18 2H8c-.177 0-.35-.024-.517-.069l5.691-5.691L16 21.537l2.826-3.297 5.691 5.691c-.167.045-.34.069-.517.069zm2-2c0 .177-.024.35-.069.517l-5.8-5.8 5.865-6.842c.003.041.004.083.004.125v12z"/></symbol><symbol id="icon-html5" viewBox="0 0 48 48"><path fill="#E65100" d="M41 5H7l3 34 14 4 14-4 3-34z"/><path fill="#FF6D00" d="M24 8v31.9l11.2-3.2L37.7 8z"/><path fill="#FFF" d="M24 25v-4h8.6l-.7 11.5-7.9 2.6v-4.2l4.1-1.4.3-4.5H24zm8.9-8 .3-4H24v4h8.9z"/><path fill="#EEE" d="M24 30.9v4.2l-7.9-2.6-.4-5.5h4l.2 2.5 4.1 1.4zM19.1 17H24v-4h-9.1l.7 12H24v-4h-4.6l-.3-4z"/></symbol><symbol id="icon-css3" viewBox="0 0 48 48"><path fill="#0277BD" d="M41 5H7l3 34 14 4 14-4 3-34z"/><path fill="#039BE5" d="M24 8v31.9l11.2-3.2L37.7 8z"/><path fill="#FFF" d="M33.1 13H24v4h4.9l-.3 4H24v4h4.4l-.3 4.5-4.1 1.4v4.2l7.9-2.6.7-11.5z"/><path fill="#EEE" d="M24 13v4h-8.9l-.3-4H24zm-4.6 8 .2 4H24v-4h-4.6zm.4 6h-4l.3 5.5 7.9 2.6v-4.2l-4.1-1.4-.1-2.5z"/></symbol><symbol id="icon-sass" viewBox="0 0 48 48"><path fill="#f06292" d="M39.867 25.956a9.032 9.032 0 0 0-3.986.928c-.408-.815-.822-1.532-.891-2.065-.081-.622-.175-.994-.077-1.735.098-.741.527-1.791.521-1.87-.006-.079-.096-.456-.983-.463-.887-.006-1.646.171-1.735.405-.089.234-.26.761-.366 1.311-.155.804-1.771 3.673-2.688 5.173-.3-.586-.555-1.102-.608-1.51-.081-.622-.175-.994-.077-1.735.098-.741.527-1.791.521-1.87-.006-.079-.096-.456-.983-.463-.887-.006-1.646.171-1.735.405-.089.234-.185.781-.366 1.311-.182.529-2.329 5.314-2.892 6.555-.287.632-.536 1.14-.712 1.486l-.001-.002-.029.062c-.151.295-.24.458-.24.458l.003.006c-.12.217-.248.418-.311.418-.044 0-.133-.577.019-1.369.32-1.66 1.087-4.248 1.08-4.338-.004-.046.143-.497-.501-.733-.626-.229-.849.153-.906.154-.055.001-.096.135-.096.135s.697-2.911-1.33-2.911c-1.268 0-3.024 1.387-3.889 2.644-.546.298-1.715.936-2.954 1.617l-1.423.783-.095-.104c-2.459-2.623-7.003-4.478-6.811-8.005.07-1.282.516-4.658 8.733-8.752 6.731-3.354 12.12-2.431 13.051-.386 1.33 2.923-2.88 8.354-9.87 9.138-2.663.299-4.066-.734-4.415-1.118-.367-.405-.422-.423-.559-.347-.223.124-.082.481 0 .694.209.543 1.065 1.506 2.525 1.986 1.285.422 4.412.653 8.193-.81 4.236-1.638 7.543-6.196 6.571-10.005-.988-3.874-7.412-5.148-13.492-2.988-3.623 1.286-7.54 3.304-10.357 5.938-3.349 3.132-3.883 5.859-3.663 6.998.782 4.048 6.361 6.684 8.595 8.637l-.308.17c-1.12.554-5.373 2.78-6.437 5.131-1.207 2.667.192 4.581 1.118 4.839 2.869.798 5.813-.638 7.396-2.998 1.582-2.359 1.389-5.432.663-6.834l-.028-.052.876-.517c.57-.335 1.13-.647 1.615-.911-.272.744-.471 1.637-.574 2.926-.122 1.514.499 3.471 1.311 4.241.358.339.788.347 1.06.347.945 0 1.376-.786 1.851-1.716.582-1.14 1.099-2.468 1.099-2.468s-.648 3.586 1.118 3.586c.644 0 1.291-.835 1.58-1.26l.001.007.05-.083c.067-.102.105-.167.105-.167l.003-.019a70.91 70.91 0 0 0 1.693-3.162c1.112-2.182 2.178-4.916 2.178-4.916s.099.668.424 1.774c.191.65.597 1.369.918 2.059-.258.358-.416.563-.416.563l.004.011c-.206.274-.437.569-.679.857-.878 1.045-1.923 2.239-2.063 2.583-.165.406-.126.704.193.945.233.175.647.203 1.08.174a4.92 4.92 0 0 0 1.617-.368 5.426 5.426 0 0 0 1.39-.731c.861-.633 1.38-1.538 1.33-2.738-.028-.661-.238-1.316-.505-1.934l.235-.34c1.357-1.984 2.41-4.164 2.41-4.164s.099.668.424 1.774c.164.559.489 1.17.781 1.768-1.276 1.037-2.067 2.242-2.342 3.032-.508 1.462-.11 2.124.636 2.275.338.068.816-.087 1.175-.239a5.438 5.438 0 0 0 1.486-.764c.861-.633 1.689-1.519 1.639-2.718-.023-.546-.171-1.088-.372-1.608 1.082-.451 2.482-.701 4.266-.493 3.827.447 4.577 2.836 4.434 3.836-.144 1-.946 1.55-1.215 1.716-.268.166-.35.224-.328.347.033.179.157.173.386.134.315-.053 2.009-.813 2.082-2.659.091-2.346-2.154-4.92-6.131-4.899zM10.37 35.9c-1.268 1.383-3.038 1.905-3.798 1.465-.82-.475-.495-2.511 1.06-3.979.948-.894 2.172-1.718 2.984-2.225l.786-.472.086-.048-.001-.002.196-.118c.567 2.089.018 3.928-1.313 5.379zm9.235-6.277c-.441 1.076-1.365 3.83-1.928 3.682-.483-.127-.777-2.22-.096-4.28.342-1.037 1.074-2.276 1.504-2.757.692-.774 1.454-1.027 1.639-.713.235.4-.842 3.393-1.119 4.068zm7.629 3.64c-.187.098-.359.159-.438.112-.059-.035.077-.164.077-.164s.954-1.027 1.33-1.494c.219-.272.472-.595.748-.955l.003.107c-.002 1.23-1.19 2.06-1.72 2.394zm5.877-1.34c-.14-.099-.116-.42.343-1.421.18-.393.592-1.054 1.306-1.686.083.26.133.509.132.741-.009 1.548-1.113 2.126-1.781 2.366z"/></symbol><symbol id="icon-gulp" viewBox="0 0 32 32"><path fill="#fa5252" d="M22.154 1a.14.14 0 0 0-.093.033l-3.715 4.412-.758 2.606a48.434 48.434 0 0 0-1.592-.024c-3.86 0-6.996.41-6.996.916 0 1.21 13.99 1.21 13.99 0 0-.375-1.675-.691-4.09-.841l.6-2.145 3.475-4.18.005-.006c.078-.08-.074-.324-.322-.537-.186-.16-.381-.239-.504-.234zm-4.851 8.076-.014.041c-.006.005-.006.012-.006.018 0 .075.303.136.672.136.37 0 .674-.061.674-.136l.012-.047c.097.035.15.075.15.121 0 .121-.375.22-.842.215-.454 0-.83-.092-.83-.213 0-.052.075-.1.184-.135zm5.61.344c-1.852.987-11.963.994-13.821.014l.822 7.232c.357-1.153 1.26-2.71 2.422-3.182.38-.156.768-.155 1.13.053.316.173.582.536.612.68.073.375-.12.523-.271.523-.182 0-.321-.264-.412-.42-.248-.42-.624-.439-1.024-.162-.418.288-.781.773-1.035 1.194a6.631 6.631 0 0 0-.727 1.625c-.09.323-.174.84-.035 1.146.061.127.151.207.297.207.303 0 .743-.38.955-.582.272-.259.623-.663.756-.922l.316-.892c.157-.392.598-.323.598 0 0 .588-.222.784-.603 2-.351 1.124-.461 1.488-.461 1.488-.042.16-.206.432-.381.432-.073 0-.126-.025-.156-.07-.061-.082-.055-.304-.05-.362.013-.184.381-1.28.442-1.453a7.36 7.36 0 0 1-.387.38c-.327.295-.852.68-1.3.68a.762.762 0 0 1-.465-.138l.459 4.588c.12.288 2.373.986 5.338.986 2.97 0 5.22-.703 5.336-.986l.66-5.452c-.345.3-.744.67-1.186.854-.327.133-1.053.218-1.053-.33 0-.3.552-.852.872-1.238.085-.098.283-.34.283-.467 0-.167-.362-.129-.707.142a3.373 3.373 0 0 0-.528.56c-.26.347-.398.645-.513.893-.375.818-.248.496-.551 1.268-.303.767-.254.68-.315.807a.565.565 0 0 1-.242.26.38.38 0 0 1-.369-.018c-.054-.035-.08-.11-.08-.213 0-.052.008-.104.02-.156.09-.352.472-1.043.908-1.977.097-.213.06-.15.047-.133-.375.346-.66.514-.871.606-.351.15-.787.15-.877-.237-.006-.023-.006-.047-.012-.07-.714.53-1.47.674-1.21-.467-.277.473-.763.86-1.357.86-.247 0-.429-.08-.519-.293-.139-.317.078-.86.277-1.373.103-.26.244-.57.432-.934.097-.196.253-.312.459-.26a.54.54 0 0 1 .098.041c.157.104.096.258.017.414-.23.432-.43.75-.562 1.2-.054.19-.122.52.09.52a.728.728 0 0 0 .417-.14c.278-.196.502-.489.672-.777a3.85 3.85 0 0 0 .34-.709c.03-.098.068-.19.11-.277.067-.144.156-.293.314-.293.079 0 .144.029.193.086.103.127.08.257.026.396-.121.323-.284.612-.418.963-.08.202-.164.461-.164.674 0 .196.224.15.412.068.145-.063.29-.16.412-.257.073-.282.054-.22 1.598-3.932.079-.19.224-.272.369-.272a.34.34 0 0 1 .193.065c.103.075.105.234.063.355-.042.11-.038.076-.274.606-.315.697-.52 1.2-.799 1.84-.115.265-.465 1.089-.525 1.285-.036.127-.08.334.06.334.328 0 1.169-.756 1.399-.98.012-.018.03-.024.055-.036.036-.11.071-.212.101-.316.085-.22.164-.475.322-.653.048-.058.103-.091.163-.091.169 0 .253.068.253.23 0 .063-.04.295-.066.358.085-.086.175-.172.272-.258.908-.801 1.554-.393 1.554.011 0 .426-.538 1.02-.834 1.348-.097.11-.296.311-.302.37 0 .074.053.105.132.105.121 0 .388-.203.485-.272.303-.225.713-.57 1.004-.812l.896-7.885zM10.93 24.03l.902 1.465.352 4.576c0 .513 1.712.928 3.818.928s3.818-.415 3.818-.928l.28-4.623.851-1.418c-2.397.963-7.527.997-10.021 0z"/></symbol><symbol id="icon-js" viewBox="0 0 48 48"><path fill="#ffd600" d="M6 42V6h36v36H6z"/><path fill="#000001" d="M29.538 32.947c.692 1.124 1.444 2.201 3.037 2.201 1.338 0 2.04-.665 2.04-1.585 0-1.101-.726-1.492-2.198-2.133l-.807-.344c-2.329-.988-3.878-2.226-3.878-4.841 0-2.41 1.845-4.244 4.728-4.244 2.053 0 3.528.711 4.592 2.573l-2.514 1.607c-.553-.988-1.151-1.377-2.078-1.377-.946 0-1.545.597-1.545 1.377 0 .964.6 1.354 1.985 1.951l.807.344C36.452 29.645 38 30.839 38 33.523 38 36.415 35.716 38 32.65 38c-2.999 0-4.702-1.505-5.65-3.368l2.538-1.685zm-11.586.082c.506.906 1.275 1.603 2.381 1.603 1.058 0 1.667-.418 1.667-2.043V22h3.333v11.101c0 3.367-1.953 4.899-4.805 4.899-2.577 0-4.437-1.746-5.195-3.368l2.619-1.603z"/></symbol><symbol id="icon-typescript" viewBox="0 0 32 32"><path fill="#007acc" style="fill:var(--color1,#007acc)" d="M0 16v16h32V0H0zm25.788-1.275a3.982 3.982 0 0 1 2.001 1.153c.295.315.732.888.767 1.027.011.04-1.381.973-2.224 1.497-.031.02-.153-.112-.289-.315-.413-.6-.844-.859-1.504-.904-.971-.067-1.595.441-1.589 1.289l-.001.05c0 .201.051.391.14.557l-.003-.006c.213.441.611.707 1.853 1.244 2.292.987 3.272 1.636 3.881 2.56.68 1.031.833 2.677.371 3.901-.507 1.331-1.767 2.235-3.54 2.533-.548.097-1.848.083-2.437-.024-1.285-.229-2.504-.864-3.256-1.697-.295-.324-.869-1.173-.833-1.233.015-.021.147-.103.293-.188.144-.081.681-.392 1.189-.687l.92-.533.193.285c.269.411.857.975 1.213 1.163 1.021.539 2.423.463 3.113-.157a1.175 1.175 0 0 0 .417-.962v.003c0-.371-.047-.533-.24-.813-.248-.355-.756-.653-2.199-1.28-1.651-.711-2.361-1.152-3.012-1.853a4.215 4.215 0 0 1-.871-1.57l-.008-.03c-.121-.452-.152-1.585-.056-2.041.34-1.596 1.544-2.707 3.281-3.037.564-.107 1.875-.067 2.428.071zm-7.512 1.336.011 1.311H14.12v11.835h-2.947V17.372H7.01v-1.285c0-.712.015-1.307.035-1.32.016-.021 2.551-.032 5.623-.027l5.593.016z"/></symbol><symbol id="icon-tailwindcss" viewBox="0 0 48 48"><path fill="#00acc1" d="M24 9.604c-6.4 0-10.4 3.199-12 9.597 2.4-3.199 5.2-4.398 8.4-3.599 1.826.456 3.131 1.781 4.576 3.247C27.328 21.236 30.051 24 36 24c6.4 0 10.4-3.199 12-9.598-2.4 3.199-5.2 4.399-8.4 3.6-1.825-.456-3.13-1.781-4.575-3.247C32.672 12.367 29.948 9.604 24 9.604zM12 24c-6.4 0-10.4 3.199-12 9.598 2.4-3.199 5.2-4.399 8.4-3.599 1.825.457 3.13 1.781 4.575 3.246 2.353 2.388 5.077 5.152 11.025 5.152 6.4 0 10.4-3.199 12-9.598-2.4 3.199-5.2 4.399-8.4 3.599-1.826-.456-3.131-1.781-4.576-3.246C20.672 26.764 17.949 24 12 24z"/></symbol><symbol id="icon-npm" viewBox="0 0 32 32"><path fill="#cb3837" style="fill:var(--color1,#cb3837)" d="M0 9.779v10.667h8.888v1.776H16v-1.776h16V9.779zm8.888 8.885H7.112v-5.333h-1.78v5.333H1.78v-7.108h7.108zm5.333 0v1.781h-3.553v-8.889h7.112v7.109h-3.559zm16.002 0H28.45v-5.333h-1.781v5.333h-1.78v-5.333h-1.773v5.333h-3.561v-7.108h10.669zM14.22 13.333H16v3.556h-1.78z"/></symbol><symbol id="icon-git" viewBox="0 0 32 32"><path fill="#f05032" style="fill:var(--color1,#f05032)" d="M31.395 14.573 17.423.602a2.065 2.065 0 0 0-2.917 0l-2.895 2.9 3.68 3.68a2.452 2.452 0 0 1 3.103 3.121l3.544 3.547a2.451 2.451 0 0 1 2.533 4.052 2.449 2.449 0 0 1-3.467 0 2.46 2.46 0 0 1-.539-2.661l-3.319-3.301v8.7c.235.115.456.271.651.464a2.463 2.463 0 0 1 0 3.467 2.46 2.46 0 0 1-3.479 0 2.445 2.445 0 0 1 0-3.464c.243-.24.516-.421.807-.541v-8.785a2.433 2.433 0 0 1-.8-.535 2.445 2.445 0 0 1-.528-2.679l-3.616-3.633L.6 14.509c-.8.807-.8 2.112 0 2.919l13.973 13.969a2.061 2.061 0 0 0 2.915 0L31.395 17.49a2.059 2.059 0 0 0 0-2.916z"/></symbol><symbol id="icon-location" viewBox="0 0 32 32"><path d="M16 0C10.477 0 6 4.477 6 10c0 10 10 22 10 22s10-12 10-22c0-5.523-4.477-10-10-10zm0 16a6 6 0 1 1 0-12 6 6 0 0 1 0 12z"/></symbol><symbol id="icon-envelope" viewBox="0 0 32 32"><path d="M29 4H3a3 3 0 0 0-3 3v18a3 3 0 0 0 3 3h26a3 3 0 0 0 3-3V7a3 3 0 0 0-3-3zM2.741 25.99l-.731-.732 8.249-8.248.731.732-8.249 8.248zm26.518 0-8.249-8.248.731-.732 8.249 8.248-.731.732zM17 19.325V20h-2v-.675L2.003 7.275l1.272-1.272L16 17.801 28.725 6.003l1.272 1.272L17 19.325z"/></symbol><symbol id="icon-chat" viewBox="0 0 32 32"><path d="M25.785 4.952H6.215a2.237 2.237 0 0 0-2.236 2.236v12.488a2.237 2.237 0 0 0 2.236 2.236h3.729l.001 5.137 5.704-5.137h10.137a2.236 2.236 0 0 0 2.236-2.236V7.188a2.237 2.237 0 0 0-2.237-2.236zM10 13.969a1 1 0 1 1 0-2 1 1 0 0 1 0 2zm4-.042a1 1 0 1 1 0-2 1 1 0 0 1 0 2zm4.02.021a1 1 0 1 1 0-2 1 1 0 0 1 0 2zm3.98.021a1 1 0 1 1 0-2 1 1 0 0 1 0 2z"/></symbol><symbol id="icon-postman" viewBox="0 0 32 32"><path fill="#ff6c37" style="fill:var(--color1,#ff6c37)" d="M18.036.132C9.273-.992 1.256 5.2.132 13.964c-1.124 8.763 5.067 16.779 13.831 17.904 8.764 1.124 16.783-5.068 17.904-13.832C32.992 9.273 26.802 1.257 18.036.132zm3.295 9.98a1.14 1.14 0 0 0-.791.333l-5.937 5.937-1.267-1.267c5.852-5.835 6.907-5.891 7.995-5.004zm-6.484 6.481 5.92-5.92a.827.827 0 1 1 1.131 1.204l-.001.001-6.265 5.5zm.44.926-1.467.317a.082.082 0 0 1-.09-.042.078.078 0 0 1 .013-.097l.86-.86zm-3.738-.612 1.563-1.563 1.172 1.171-2.639.568a.097.097 0 0 1-.113-.052v-.001a.093.093 0 0 1-.015-.052c0-.029.013-.054.032-.072zm-4.861 8.077a.101.101 0 0 1-.092-.101v-.01a.103.103 0 0 1 .029-.061h.003l1.261-1.261 1.629 1.629zm3.233-1.675a.305.305 0 0 0-.155.343v-.002l.271 1.153a.167.167 0 0 1-.281.157h-.004l-1.637-1.639 5.016-5.011 2.427-.524 1.165 1.165c-1.673 1.469-3.961 2.935-6.8 4.357zm7.039-4.57h-.003l-1.119-1.119 6.265-5.5a1.3 1.3 0 0 0 .157-.167l.002-.003c-.197 1.793-2.705 4.327-5.303 6.788zm4.876-8.614-.004-.003a2.429 2.429 0 0 1 3.283-3.576l-.004-.003-2.147 2.151a.16.16 0 0 0 0 .226l1.663 1.663a2.394 2.394 0 0 1-1.077.253 2.412 2.412 0 0 1-1.713-.71zm3.437 0a2.258 2.258 0 0 1-.353.285l-.009.005h-.001l-1.609-1.609 2.044-2.044a2.43 2.43 0 0 1-.072 3.363zm-.133-2.058a.19.19 0 0 0-.071.21v-.001a.55.55 0 0 1-.072.601l.001-.001a.187.187 0 0 0 .031.262.188.188 0 0 0 .112.04.188.188 0 0 0 .141-.066.916.916 0 0 0 .113-1.006l.002.005a.185.185 0 0 0-.259-.044h.001z"/></symbol><symbol id="icon-mysql" viewBox="0 0 32 32"><path fill="#4479a1" style="fill:var(--color1,#4479a1)" d="M21.873 7.568c-.153 0-.257.019-.365.044v.017h.019c.072.139.195.24.285.364.072.143.133.285.205.427l.019-.02c.125-.088.187-.229.187-.444-.053-.063-.061-.125-.107-.187-.053-.089-.168-.133-.243-.201zM7.693 25.16H6.457a67.797 67.797 0 0 0-.36-5.88h-.011l-1.88 5.88h-.94l-1.867-5.88h-.013a97.463 97.463 0 0 0-.26 5.88H-.001c.073-2.621.256-5.08.547-7.373h1.533l1.78 5.419h.011l1.796-5.419h1.46c.323 2.687.512 5.147.567 7.373zm5.356-5.44c-.504 2.727-1.168 4.711-1.989 5.947-.643.955-1.347 1.431-2.111 1.431-.204 0-.453-.061-.755-.184v-.659c.147.023.32.035.515.035.357 0 .644-.1.863-.296.263-.24.393-.509.393-.807 0-.207-.103-.627-.307-1.259L8.306 19.72h1.213l.969 3.147c.219.715.311 1.213.273 1.497.533-1.419.904-2.969 1.113-4.644zm16.434 5.44h-3.507v-7.373h1.18v6.467h2.327zm-4.427.18-1.355-.667c.12-.101.236-.211.34-.333.577-.675.864-1.677.864-3.004 0-2.44-.957-3.661-2.873-3.661-.939 0-1.672.309-2.2.929-.573.677-.861 1.675-.861 2.993 0 1.296.253 2.248.765 2.853.467.547 1.169.82 2.111.82.352 0 .675-.044.967-.131l1.767 1.029zm-4.389-1.656c-.3-.48-.449-1.253-.449-2.315 0-1.857.565-2.787 1.693-2.787.591 0 1.027.223 1.303.667.299.483.448 1.248.448 2.297 0 1.872-.565 2.811-1.693 2.811-.593 0-1.027-.223-1.301-.673zm-2.211-.567c0 .627-.229 1.141-.688 1.541s-1.071.6-1.845.6c-.724 0-1.419-.229-2.097-.687l.316-.635c.584.293 1.111.437 1.587.437.443 0 .791-.097 1.044-.293.251-.196.4-.472.4-.82 0-.44-.307-.813-.864-1.127-.517-.284-1.551-.876-1.551-.876-.563-.409-.843-.848-.843-1.569 0-.6.209-1.08.627-1.447.42-.371.96-.553 1.627-.553.683 0 1.307.181 1.867.547l-.284.635a3.628 3.628 0 0 0-1.419-.307c-.377 0-.669.091-.872.275a.912.912 0 0 0-.331.699c0 .437.312.813.888 1.133a138.1 138.1 0 0 1 1.583.893c.577.407.864.84.856 1.553zm12.509-7.802c-.713-.019-1.267.053-1.729.251-.133.053-.347.053-.365.223.073.071.084.187.147.285.107.179.291.417.461.543.187.147.373.288.569.413.347.213.74.34 1.08.555.193.125.391.284.587.417.097.067.16.187.285.229v-.027c-.061-.08-.08-.196-.14-.285-.089-.089-.179-.169-.267-.257a4.299 4.299 0 0 0-.927-.9c-.285-.195-.909-.467-1.027-.793l-.017-.019c.195-.017.427-.088.613-.141.303-.08.58-.063.893-.141.141-.036.284-.08.427-.125v-.08c-.16-.16-.28-.377-.445-.527a11.796 11.796 0 0 0-1.472-1.097c-.28-.179-.635-.293-.929-.445-.107-.053-.285-.08-.347-.169-.16-.195-.253-.453-.367-.685a23.176 23.176 0 0 1-.729-1.551c-.16-.349-.257-.697-.453-1.017-.92-1.516-1.916-2.435-3.448-3.333-.329-.187-.724-.267-1.141-.365-.223-.011-.445-.027-.667-.036-.147-.063-.288-.232-.413-.313-.507-.32-1.819-1.013-2.192-.096-.24.579.356 1.149.563 1.443.153.204.347.437.453.667.063.155.08.313.143.475.141.392.276.829.463 1.196.097.187.204.383.329.551.072.097.195.143.223.303-.125.181-.133.445-.205.667-.32 1.009-.195 2.257.259 3 .143.221.483.712.937.524.4-.16.312-.667.427-1.113.027-.107.009-.177.064-.249v.02c.125.251.251.489.365.74.275.437.755.891 1.156 1.193.213.16.383.437.649.536v-.027h-.02c-.057-.077-.133-.115-.205-.177-.16-.16-.34-.356-.467-.533a11.68 11.68 0 0 1-.996-1.624c-.147-.28-.269-.581-.387-.857-.053-.107-.053-.267-.143-.32-.133.195-.329.364-.427.604-.169.384-.187.856-.251 1.347-.036.009-.019 0-.036.019-.285-.069-.383-.365-.489-.613-.267-.633-.311-1.651-.08-2.38.063-.187.329-.776.223-.955-.056-.169-.232-.267-.329-.404a3.3 3.3 0 0 1-.32-.569c-.213-.499-.32-1.051-.552-1.549-.107-.231-.293-.472-.445-.684-.169-.24-.356-.409-.491-.693-.044-.097-.107-.259-.036-.365.019-.072.056-.1.125-.12.117-.096.447.029.563.083.329.133.607.259.883.445.125.088.26.257.42.301h.187c.285.063.607.019.873.097.473.152.9.373 1.283.613a7.933 7.933 0 0 1 2.78 3.048c.107.205.153.393.251.607.187.44.417.884.607 1.309.187.42.367.848.635 1.196.133.187.669.284.909.381.177.08.453.153.613.251.307.187.605.4.893.605.147.101.591.324.617.504z"/></symbol><symbol id="icon-mail-checked" viewBox="0 0 32 32"><path d="M20.135 16.83 18 15l5.923-5.077-.808-.808L14.5 16.5 5.885 9.115l-.808.808L11 15l-5.923 5.077.808.808 5.99-5.135L14.5 18l2.625-2.25 2.441 2.093A6.474 6.474 0 0 0 19 20.5c0 .886.177 1.73.498 2.5H4.003a1.995 1.995 0 0 1-2.004-1.994V8.994A2 2 0 0 1 4.003 7h20.993C26.11 7 27 7.893 27 8.994v5.18A6.509 6.509 0 0 0 25.5 14a6.492 6.492 0 0 0-5.365 2.83zM25.5 26a5.5 5.5 0 1 0 0-11 5.5 5.5 0 1 0 0 11zm-.5-2.757-2.354-2.354.732-.732 1.621 1.621 3.121-3.121.732.732-3.854 3.854z"/></symbol><symbol id="icon-mail-error" viewBox="0 0 32 32"><path d="M21.532 18.028 18 15l5.923-5.077-.808-.808L14.5 16.5 5.885 9.115l-.808.808L11 15l-5.923 5.077.808.808 5.99-5.135L14.5 18l2.625-2.25 3.819 3.274L18.597 23H4.003a1.995 1.995 0 0 1-2.004-1.994V8.994A2 2 0 0 1 4.003 7h20.993C26.11 7 27 7.893 27 8.994v8.241L24.5 13l-2.968 5.028zM24.5 15 31 26H18l6.5-11zm-.5 4v3h1v-3h-1zm0 4v1h1v-1h-1z"/></symbol><symbol id="icon-external-link" viewBox="0 0 24 24"><path d="M17 13v6c0 .276-.111.525-.293.707S16.276 20 16 20H5c-.276 0-.525-.111-.707-.293S4 19.276 4 19V8c0-.276.111-.525.293-.707S4.724 7 5 7h6a1 1 0 0 0 0-2H5a2.997 2.997 0 0 0-3 3v11a2.997 2.997 0 0 0 3 3h11a2.997 2.997 0 0 0 3-3v-6a1 1 0 0 0-2 0zm-6.293 1.707L20 5.414V9a1 1 0 0 0 2 0V3a.995.995 0 0 0-.292-.706l-.002-.002A.996.996 0 0 0 21 2h-6a1 1 0 0 0 0 2h3.586l-9.293 9.293a.999.999 0 1 0 1.414 1.414z"/></symbol><symbol id="icon-quotes-right" viewBox="0 0 32 32"><path d="M7.031 14a7 7 0 1 1-7 7L0 20C0 12.268 6.268 6 14 6v4a9.934 9.934 0 0 0-7.071 2.929 10.24 10.24 0 0 0-.995 1.157A7.081 7.081 0 0 1 7.031 14zm18 0a7 7 0 1 1-7 7L18 20c0-7.732 6.268-14 14-14v4a9.934 9.934 0 0 0-7.071 2.929 10.24 10.24 0 0 0-.995 1.157A7.09 7.09 0 0 1 25.031 14z"/></symbol><symbol id="icon-quotes-left" viewBox="0 0 32 32"><path d="M25 20a7 7 0 1 1 7-7l.031 1c0 7.732-6.268 14-14 14v-4a9.934 9.934 0 0 0 7.071-2.929c.364-.364.695-.75.995-1.157A7.081 7.081 0 0 1 25 20zM7 20a7 7 0 1 1 7-7l.031 1c0 7.732-6.268 14-14 14v-4a9.934 9.934 0 0 0 7.071-2.929c.364-.364.695-.75.995-1.157A7.081 7.081 0 0 1 7 20z"/></symbol><symbol id="icon-react" viewBox="0 0 32 32"><path fill="#61dafb" style="fill:var(--color1,#61dafb)" d="M16 13.148a2.852 2.852 0 0 0 0 5.704 2.852 2.852 0 0 0 0-5.704zm-7.989 8.525-.629-.16C2.691 20.328.001 18.316.001 15.994s2.691-4.333 7.381-5.519l.629-.159.177.624a31.104 31.104 0 0 0 1.899 4.957l-.082-.186.135.284-.135.284a29.368 29.368 0 0 0-1.761 4.551l-.056.22zm-.922-9.74c-3.565 1.001-5.753 2.533-5.753 4.061 0 1.527 2.188 3.059 5.753 4.061a32.611 32.611 0 0 1 1.662-4.263l-.086.202a30.435 30.435 0 0 1-1.511-3.828l-.065-.234zm16.9 9.74-.177-.625a30.782 30.782 0 0 0-1.9-4.954l.081.184-.135-.284.135-.284a29.456 29.456 0 0 0 1.762-4.55l.056-.221.177-.624.631.159c4.689 1.185 7.38 3.197 7.38 5.52s-2.691 4.333-7.38 5.519zm-.654-5.678a33.038 33.038 0 0 1 1.576 4.061c3.567-1.003 5.753-2.535 5.753-4.061 0-1.528-2.188-3.059-5.753-4.061a32.424 32.424 0 0 1-1.662 4.262l.086-.2zM7.08 11.927l-.177-.623C5.584 6.656 5.984 3.325 8 2.163c1.977-1.141 5.152.207 8.479 3.621l.453.465-.453.465a31.6 31.6 0 0 0-3.162 3.853l-.068.103-.18.257-.313.027a31.667 31.667 0 0 0-5.264.86l.218-.047zm2.528-8.84c-.357 0-.673.077-.94.231-1.325.764-1.56 3.42-.647 7.004a31.194 31.194 0 0 1 4.18-.658l.131-.01a33.328 33.328 0 0 1 2.756-3.414l-.02.022c-2.08-2.025-4.049-3.175-5.46-3.175zm12.785 27.149c-.001 0-.001 0 0 0-1.9 0-4.34-1.431-6.872-4.031l-.453-.465.453-.465a31.427 31.427 0 0 0 3.16-3.854l.068-.103.18-.257.312-.027a31.74 31.74 0 0 0 5.267-.858l-.218.046.629-.159.179.624c1.316 4.645.917 7.977-1.099 9.139a3.132 3.132 0 0 1-1.562.411h-.047.002zm-5.461-4.508c2.08 2.025 4.049 3.175 5.46 3.175h.001c.356 0 .673-.077.939-.231 1.325-.764 1.561-3.421.647-7.005a30.933 30.933 0 0 1-4.182.658l-.13.01a33.219 33.219 0 0 1-2.755 3.416l.02-.022zm7.988-13.801-.629-.159c-1.453-.376-3.175-.664-4.939-.806l-.111-.007-.312-.027-.18-.257a31.57 31.57 0 0 0-3.237-3.966l.009.01-.453-.465.453-.465C18.846 2.372 22.02 1.024 24 2.164c2.016 1.163 2.416 4.493 1.099 9.14zm-5.253-2.274c1.523.139 2.969.364 4.312.668.915-3.584.679-6.24-.647-7.004-1.317-.761-3.793.405-6.4 2.944a33.376 33.376 0 0 1 2.666 3.289l.069.103zM9.608 30.236h-.046a3.153 3.153 0 0 1-1.577-.419l.015.008c-2.016-1.161-2.416-4.492-1.097-9.139l.176-.624.629.159c1.54.388 3.239.661 5.047.812l.313.027.179.257a31.521 31.521 0 0 0 3.239 3.967l-.01-.01.453.465-.453.465c-2.531 2.6-4.971 4.031-6.868 4.031zm-1.587-8.569c-.915 3.584-.679 6.241.647 7.005 1.316.751 3.791-.407 6.4-2.944a33.543 33.543 0 0 1-2.667-3.29l-.069-.103a33.315 33.315 0 0 1-4.534-.711l.224.043zm7.979.837c-1.097 0-2.225-.048-3.355-.141l-.313-.027-.18-.257a38.303 38.303 0 0 1-1.697-2.639l-.103-.19a36.12 36.12 0 0 1-1.45-2.728l-.105-.243-.133-.284.133-.284a38.537 38.537 0 0 1 1.658-3.161l-.103.191a40.4 40.4 0 0 1 1.8-2.829l.18-.257.313-.027a40.227 40.227 0 0 1 6.86.011l-.15-.011.312.027.179.257a39.103 39.103 0 0 1 3.252 5.56l.104.24.135.284-.135.284a39.328 39.328 0 0 1-3.439 5.925l.083-.125-.179.257-.312.027a41.083 41.083 0 0 1-3.356.141zm-2.929-1.445c1.973.148 3.885.148 5.86 0a37.57 37.57 0 0 0 2.827-4.836l.101-.228a37.891 37.891 0 0 0-3.012-5.19l.083.126a39.304 39.304 0 0 0-5.992.008l.134-.008a36.95 36.95 0 0 0-2.83 4.84l-.099.224a38.502 38.502 0 0 0 3.014 5.193l-.085-.13z"/></symbol><symbol id="icon-next-js" viewBox="0 0 32 32"><path d="M23.751 30.003c-.119.063-.112.088.007.028a.305.305 0 0 0 .093-.063c0-.021-.003-.019-.1.035zm.237-.126c-.056.044-.056.047.012.012.037-.019.069-.04.069-.047 0-.025-.016-.019-.081.035zm.156-.094c-.056.044-.056.047.012.012.037-.019.069-.04.069-.047 0-.025-.016-.019-.081.035zm.156-.094c-.056.044-.056.047.012.012.037-.019.069-.04.069-.047 0-.025-.016-.019-.081.035zm.216-.14c-.109.069-.144.116-.047.063.069-.04.181-.125.163-.128a.613.613 0 0 0-.118.067l.002-.001zM14.952.008a29.2 29.2 0 0 1-.485.044C9.923.461 5.666 2.913 2.97 6.683a15.674 15.674 0 0 0-2.813 6.904l-.011.087c-.128.879-.144 1.139-.144 2.331s.016 1.451.144 2.331c.869 6.008 5.145 11.056 10.944 12.927a16.86 16.86 0 0 0 3.377.7c.485.053 2.58.053 3.065 0 2.148-.237 3.969-.769 5.764-1.685.275-.141.328-.179.291-.209-.312-.379-1.167-1.516-2.015-2.659l-.591-.834-2.559-3.456-3.205-4.744a258.747 258.747 0 0 0-4.18-6.183l.952 1.441c-.012-.003-.025 2.105-.031 4.679-.009 4.507-.012 4.688-.069 4.795a.579.579 0 0 1-.271.283l-.003.001c-.1.051-.188.06-.66.06h-.541l-.144-.091a.598.598 0 0 1-.208-.225l-.002-.003-.065-.141.007-6.271.009-6.273.097-.121a.84.84 0 0 1 .228-.188l.004-.002c.128-.063.179-.069.72-.069.639 0 .744.025.911.207-.11-.286 1.162 1.609 2.423 3.511l1.437 2.303c2.077 3.149 4.916 7.449 6.312 9.561l2.533 3.837.128-.084a16.563 16.563 0 0 0 3.27-2.865l.016-.019a15.84 15.84 0 0 0 3.755-8.091l.011-.088c.128-.879.144-1.139.144-2.331s-.016-1.451-.144-2.331C30.987 7.67 26.711 2.622 20.912.751A16.024 16.024 0 0 0 17.655.06l-.074-.006c-.3-.031-2.368-.065-2.629-.044zm6.549 9.677a.63.63 0 0 1 .315.365l.001.004c.025.081.031 1.82.025 5.739l-.009 5.624-.992-1.52-.995-1.52v-4.088c0-2.643.012-4.128.031-4.2a.65.65 0 0 1 .306-.393l.003-.002c.128-.065.175-.072.667-.072.463 0 .544.007.648.063z"/></symbol><symbol id="icon-docker" viewBox="0 0 32 32"><path fill="#1488c6" style="fill:var(--color1,#1488c6)" d="M6.427 23.033c-.912 0-1.739-.747-1.739-1.653s.747-1.657 1.74-1.657c.997 0 1.747.747 1.747 1.656s-.829 1.653-1.748 1.655zm21.349-9.017c-.18-1.323-1-2.4-2.08-3.227l-.42-.333-.339.413c-.659.747-.92 2.071-.84 3.06.08.749.32 1.493.739 2.072-.339.173-.757.333-1.08.503-.76.249-1.499.333-2.24.333H.129l-.08.493a9.308 9.308 0 0 0 .749 4.72l.325.58v.08c2 3.311 5.56 4.8 9.437 4.8 7.459 0 13.576-3.227 16.476-10.177 1.9.083 3.819-.413 4.72-2.235l.24-.413-.4-.249c-1.08-.659-2.56-.747-3.8-.413zm-10.677-1.323h-3.237v3.227h3.24v-3.229zm0-4.057h-3.237v3.227h3.24V8.64zm0-4.139h-3.237v3.227h3.24V4.497zm3.96 8.196H17.84v3.227h3.227v-3.229zm-11.998 0H5.844v3.227h3.229v-3.229zm4.04 0h-3.2v3.227h3.219v-3.229zm-8.04 0H1.866v3.227h3.237v-3.229zm8.04-4.057h-3.2v3.227h3.219V8.64zm-4.06 0H5.849v3.227h3.217V8.64z"/></symbol><symbol id="icon-redux" viewBox="0 0 32 32"><path fill="#764abc" style="fill:var(--color1,#764abc)" d="M22.177 22.005c1.159-.1 2.057-1.12 1.999-2.339-.061-1.219-1.06-2.197-2.277-2.197h-.081a2.28 2.28 0 0 0-2.197 2.359c.04.639.301 1.159.659 1.537-1.397 2.717-3.495 4.715-6.672 6.393-2.137 1.117-4.395 1.539-6.592 1.239-1.837-.259-3.275-1.08-4.155-2.397-1.317-1.999-1.437-4.155-.34-6.312.801-1.559 1.999-2.697 2.799-3.257a13.28 13.28 0 0 1-.56-2.056C-1.155 19.211-.553 25.003 1.244 27.74c1.339 1.997 4.076 3.275 7.072 3.275.799 0 1.639-.059 2.457-.259 5.195-.999 9.129-4.115 11.387-8.709zm7.131-4.994c-3.095-3.636-7.651-5.633-12.845-5.633h-.68c-.337-.739-1.116-1.199-1.996-1.199h-.06c-1.257 0-2.237 1.08-2.196 2.337.04 1.197 1.059 2.197 2.277 2.197h.099c.9-.04 1.679-.6 1.997-1.399h.74c3.079 0 5.993.899 8.651 2.656 2.036 1.339 3.496 3.096 4.315 5.195.717 1.717.679 3.396-.06 4.796-1.139 2.196-3.057 3.356-5.593 3.356-1.599 0-3.156-.5-3.956-.859-.479.397-1.279 1.057-1.859 1.457 1.757.797 3.536 1.257 5.253 1.257 3.896 0 6.791-2.196 7.891-4.315 1.197-2.397 1.099-6.432-1.959-9.888zM8.653 22.723c.039 1.199 1.057 2.197 2.277 2.197h.08a2.25 2.25 0 0 0 2.197-2.357c0-1.199-1.039-2.196-2.257-2.196h-.081c-.08 0-.199 0-.3.039-1.657-2.797-2.357-5.795-2.096-9.028.159-2.437.959-4.556 2.396-6.313 1.199-1.499 3.456-2.239 4.995-2.277 4.315-.081 6.113 5.295 6.252 7.432l1.997.599C23.653 4.267 19.58.83 15.684.83c-3.656 0-7.031 2.657-8.391 6.553-1.857 5.195-.639 10.188 1.639 14.184-.199.26-.319.719-.279 1.157z"/></symbol><symbol id="icon-styled-components" viewBox="0 0 32 32"><path fill="#db7093" style="fill:var(--color1,#db7093)" d="m21.619 9.016-.1.521c-.155.988-.099 1.271.325 1.637l.409.339-.424 1.891c-.253 1.128-.564 2.073-.761 2.384-.169.268-.367.663-.409.875-.071.253-.311.508-.677.733-.324.184-.96.677-1.411 1.073-.36.324-.608.523-.743.608l-.44.348c-.141.227-.221.409-.252.548-.031.143-.013.237.032.307.044.067.12.113.224.143a1.254 1.254 0 0 0 .38.031h-.004c.309-.022.596-.075.871-.157l-.028.007c.093-.025.167-.049.231-.071.099-.121.327-.351.731-.749 1.072-1.057 1.481-1.636 1.059-1.48-.156.056-.085-.085.183-.368.565-.551.889-1.383 1.567-3.992.536-2.06.536-2.089.931-2.089.185 0 .709.032.709.032V9.016h-1.203zm5.118 4.22c-.085 0-.227.128-.311.269-.155.253.028.408 2.356 1.861 1.383.876 2.497 1.623 2.469 1.68-.028.041-1.157.776-2.511 1.623-2.456 1.523-2.469 1.537-2.244 1.848.283.367 0 .493 3.188-1.496l2.315-1.481v-1.115l-2.583-1.595c-1.396-.875-2.609-1.58-2.68-1.595zm-21.446.156c-.071 0-1.284.72-2.68 1.58L0 16.567v1.115l2.596 1.623c1.44.888 2.653 1.623 2.709 1.623s.169-.128.283-.283c.169-.268.027-.381-2.357-1.891C.96 17.329.72 17.131.947 16.977c.141-.099 1.213-.763 2.371-1.481 2.639-1.623 2.497-1.511 2.285-1.849-.084-.14-.227-.267-.312-.253zm11.578.031c-.389-.003-1.227.591-3.733 2.637-.108.257-.117.435-.068.549a.33.33 0 0 0 .172.173c.08.04.184.064.299.073.228.02.497-.016.715-.059l.147-.033a.518.518 0 0 1 .189-.156l.003-.001c.155-.085.804-.677 1.453-1.312 1.143-1.157 1.411-1.68.945-1.849a.322.322 0 0 0-.118-.023h-.003zm2.928.804c-.343.009-.96.407-2.017 1.251-.531.431-.867.663-1.047.711l-.699.552c-.263.48-.301.777-.232.941a.337.337 0 0 0 .182.178l.002.001c.093.038.202.06.315.06h.005c.277-.003.542-.044.794-.119l-.021.005c.164-.044.293-.086.42-.133l-.032.01.039-.016.071-.037c.133-.172.44-.496.824-.869 1.213-1.171 1.833-2.003 1.707-2.313-.057-.151-.156-.227-.311-.221zm-3.232 1.44c-.099.011-.32.181-.719.531-.576.509-1.204.803-1.421.672a1.614 1.614 0 0 1-.118.026l-.034.006a2.83 2.83 0 0 1-.744.06.962.962 0 0 1-.342-.086l.006.002a.454.454 0 0 1-.223-.224l-.001-.003c-.049-.12-.049-.269.007-.46l-.867.712-1.961 1.623v2.631l6.427-5.063v-.012c0-.054.008-.106.022-.156l-.001.004c.049-.179.047-.269-.031-.263zm2.766.852c-.097 0-.26.137-.52.413-.353.377-.909.743-1.204.817l-.045.024a2.216 2.216 0 0 1-.126.05l-.02.006c-.08.027-.184.059-.304.091-.24.065-.539.125-.805.119a.985.985 0 0 1-.373-.074l.006.002a.46.46 0 0 1-.244-.237l-.001-.003c-.077-.185-.047-.445.123-.815l-5.669 4.465v1.607h2.491l5.283-4.149c.137-.152.344-.36.623-.62.747-.692.916-.931.916-1.284 0-.275-.031-.413-.128-.412zm1.257 2.6-.452.451c-.253.24-.705.536-1.015.663l-.061.027-.004.007-.013.013c-.012.009-.017.011-.027.015a3.699 3.699 0 0 1-.344.116l-.032.008a3.92 3.92 0 0 1-.854.153l-.013.001a1.378 1.378 0 0 1-.423-.038l.009.002a.487.487 0 0 1-.29-.191l-.001-.001c-.064-.099-.083-.231-.047-.393a1.44 1.44 0 0 1 .131-.341l-.004.008-4.263 3.368h5.669l.677-.776c.931-1.085 1.355-1.861 1.355-2.525z"/></symbol></defs></svg>