<svg aria-hidden="true" style="width:0;height:0;position:absolute;overflow:hidden" xmlns="http://www.w3.org/2000/svg"><defs><symbol id="icon-briefcase" viewBox="0 0 24 24"><path d="M18 7c0-1.654-1.346-3-3-3H9C7.346 4 6 5.346 6 7c-1.654 0-3 1.346-3 3v7c0 1.654 1.346 3 3 3h12c1.654 0 3-1.346 3-3v-7c0-1.654-1.346-3-3-3zM9 6h6c.551 0 1 .449 1 1H8c0-.551.449-1 1-1zm10 11c0 .551-.449 1-1 1H6c-.551 0-1-.449-1-1v-1h14v1zM5 15v-5c0-.551.449-1 1-1h12c.551 0 1 .449 1 1v5H5z"/><path d="M13 12h-2c-.55 0-1 .45-1 1s.45 1 1 1h2c.55 0 1-.45 1-1s-.45-1-1-1z"/></symbol><symbol id="icon-pencil2" viewBox="0 0 32 32"><path d="M29.395 2.58C27.75.937 25.584 0 23.449 0c-1.801 0-3.459.668-4.67 1.877l-4.867 4.904c-.015.014-.032.023-.047.038-.008.008-.013.019-.021.026l.002.002L3.517 17.256a4.023 4.023 0 0 0-1.013 1.705L.155 27.469C.153 27.492 0 28.16 0 28.5 0 30.432 1.569 32 3.504 32c.385 0 1.13-.184 1.157-.188l8.478-2.229a4.021 4.021 0 0 0 1.705-1.016l15.263-15.383c2.776-2.778 2.463-7.434-.712-10.604zM16.014 23.795a8.145 8.145 0 0 0-.719-2.627l9.455-9.454c.578 1.826.281 3.736-.986 5.004-.008.008-.018.013-.025.021l.014.013-7.728 7.79c0-.249.012-.493-.011-.747zm-1.221-3.539c-.373-.613-.797-1.205-1.322-1.729-.611-.611-1.312-1.09-2.044-1.492l9.532-9.532a6.939 6.939 0 0 1 2.098 1.438 6.976 6.976 0 0 1 1.281 1.771l-9.545 9.544zm-4.307-3.694a7.976 7.976 0 0 0-2.868-.599l7.703-7.762c1.179-1.15 2.896-1.481 4.587-1.062l-9.422 9.423zM4.167 29.873c-.109.025-.448.111-.678.127A1.505 1.505 0 0 1 2 28.5c.012-.168.079-.457.102-.562l1.053-3.814c1.143-.031 2.373.414 3.34 1.383.982.98 1.444 2.234 1.394 3.391l-3.722.975zm4.707-1.236c-.024-1.342-.57-2.738-1.672-3.838-1.042-1.043-2.406-1.645-3.766-1.699l.996-3.607c.072-.24.215-.477.391-.684 2.006-1.436 5.091-1.012 7.234 1.133 2.267 2.266 2.617 5.586.871 7.568a1.97 1.97 0 0 1-.359.156l-3.695.971zm19.817-16.865-1.684 1.697c0-.226.027-.443.006-.674-.176-1.935-1.078-3.806-2.543-5.269-1.629-1.63-3.789-2.565-5.928-2.571l1.656-1.67C21.027 2.458 22.184 2 23.449 2c1.609 0 3.262.728 4.533 1.995 1.193 1.191 1.904 2.671 2.006 4.168.094 1.397-.367 2.678-1.297 3.609z"/></symbol><symbol id="icon-github" viewBox="0 0 32 32"><path d="M16 .395c-8.836 0-16 7.163-16 16 0 7.069 4.585 13.067 10.942 15.182.8.148 1.094-.347 1.094-.77 0-.381-.015-1.642-.022-2.979-4.452.968-5.391-1.888-5.391-1.888-.728-1.849-1.776-2.341-1.776-2.341-1.452-.993.11-.973.11-.973 1.606.113 2.452 1.649 2.452 1.649 1.427 2.446 3.743 1.739 4.656 1.33.143-1.034.558-1.74 1.016-2.14-3.554-.404-7.29-1.777-7.29-7.907 0-1.747.625-3.174 1.649-4.295-.166-.403-.714-2.03.155-4.234 0 0 1.344-.43 4.401 1.64a15.353 15.353 0 0 1 4.005-.539c1.359.006 2.729.184 4.008.539 3.054-2.07 4.395-1.64 4.395-1.64.871 2.204.323 3.831.157 4.234 1.026 1.12 1.647 2.548 1.647 4.295 0 6.145-3.743 7.498-7.306 7.895.574.497 1.085 1.47 1.085 2.963 0 2.141-.019 3.864-.019 4.391 0 .426.288.925 1.099.768C27.421 29.457 32 23.462 32 16.395c0-8.837-7.164-16-16-16z"/></symbol><symbol id="icon-linkedin" viewBox="0 0 32 32"><path d="M12 12h5.535v2.837h.079c.77-1.381 2.655-2.837 5.464-2.837C28.92 12 30 15.637 30 20.367V30h-5.769v-8.54c0-2.037-.042-4.657-3.001-4.657-3.005 0-3.463 2.218-3.463 4.509V30H12V12zM2 12h6v18H2V12zM8 7a3 3 0 1 1-6 0 3 3 0 0 1 6 0z"/></symbol><symbol id="icon-mail" viewBox="0 0 32 32"><path d="M16 0C7.163 0 0 7.163 0 16s7.163 16 16 16 16-7.163 16-16S24.837 0 16 0zM8 8h16c.286 0 .563.061.817.177L16 18.463 7.183 8.176c.254-.116.531-.177.817-.177zM6 22V10c0-.042.002-.084.004-.125l5.864 6.842-5.8 5.8A1.983 1.983 0 0 1 5.999 22zm18 2H8c-.177 0-.35-.024-.517-.069l5.691-5.691L16 21.537l2.826-3.297 5.691 5.691c-.167.045-.34.069-.517.069zm2-2c0 .177-.024.35-.069.517l-5.8-5.8 5.865-6.842c.003.041.004.083.004.125v12z"/></symbol><symbol id="icon-html5" viewBox="0 0 48 48"><path fill="#E65100" d="M41 5H7l3 34 14 4 14-4 3-34z"/><path fill="#FF6D00" d="M24 8v31.9l11.2-3.2L37.7 8z"/><path fill="#FFF" d="M24 25v-4h8.6l-.7 11.5-7.9 2.6v-4.2l4.1-1.4.3-4.5H24zm8.9-8 .3-4H24v4h8.9z"/><path fill="#EEE" d="M24 30.9v4.2l-7.9-2.6-.4-5.5h4l.2 2.5 4.1 1.4zM19.1 17H24v-4h-9.1l.7 12H24v-4h-4.6l-.3-4z"/></symbol><symbol id="icon-css3" viewBox="0 0 48 48"><path fill="#0277BD" d="M41 5H7l3 34 14 4 14-4 3-34z"/><path fill="#039BE5" d="M24 8v31.9l11.2-3.2L37.7 8z"/><path fill="#FFF" d="M33.1 13H24v4h4.9l-.3 4H24v4h4.4l-.3 4.5-4.1 1.4v4.2l7.9-2.6.7-11.5z"/><path fill="#EEE" d="M24 13v4h-8.9l-.3-4H24zm-4.6 8 .2 4H24v-4h-4.6zm.4 6h-4l.3 5.5 7.9 2.6v-4.2l-4.1-1.4-.1-2.5z"/></symbol><symbol id="icon-sass" viewBox="0 0 48 48"><path fill="#f06292" d="M39.867 25.956a9.032 9.032 0 0 0-3.986.928c-.408-.815-.822-1.532-.891-2.065-.081-.622-.175-.994-.077-1.735.098-.741.527-1.791.521-1.87-.006-.079-.096-.456-.983-.463-.887-.006-1.646.171-1.735.405-.089.234-.26.761-.366 1.311-.155.804-1.771 3.673-2.688 5.173-.3-.586-.555-1.102-.608-1.51-.081-.622-.175-.994-.077-1.735.098-.741.527-1.791.521-1.87-.006-.079-.096-.456-.983-.463-.887-.006-1.646.171-1.735.405-.089.234-.185.781-.366 1.311-.182.529-2.329 5.314-2.892 6.555-.287.632-.536 1.14-.712 1.486l-.001-.002-.029.062c-.151.295-.24.458-.24.458l.003.006c-.12.217-.248.418-.311.418-.044 0-.133-.577.019-1.369.32-1.66 1.087-4.248 1.08-4.338-.004-.046.143-.497-.501-.733-.626-.229-.849.153-.906.154-.055.001-.096.135-.096.135s.697-2.911-1.33-2.911c-1.268 0-3.024 1.387-3.889 2.644-.546.298-1.715.936-2.954 1.617l-1.423.783-.095-.104c-2.459-2.623-7.003-4.478-6.811-8.005.07-1.282.516-4.658 8.733-8.752 6.731-3.354 12.12-2.431 13.051-.386 1.33 2.923-2.88 8.354-9.87 9.138-2.663.299-4.066-.734-4.415-1.118-.367-.405-.422-.423-.559-.347-.223.124-.082.481 0 .694.209.543 1.065 1.506 2.525 1.986 1.285.422 4.412.653 8.193-.81 4.236-1.638 7.543-6.196 6.571-10.005-.988-3.874-7.412-5.148-13.492-2.988-3.623 1.286-7.54 3.304-10.357 5.938-3.349 3.132-3.883 5.859-3.663 6.998.782 4.048 6.361 6.684 8.595 8.637l-.308.17c-1.12.554-5.373 2.78-6.437 5.131-1.207 2.667.192 4.581 1.118 4.839 2.869.798 5.813-.638 7.396-2.998 1.582-2.359 1.389-5.432.663-6.834l-.028-.052.876-.517c.57-.335 1.13-.647 1.615-.911-.272.744-.471 1.637-.574 2.926-.122 1.514.499 3.471 1.311 4.241.358.339.788.347 1.06.347.945 0 1.376-.786 1.851-1.716.582-1.14 1.099-2.468 1.099-2.468s-.648 3.586 1.118 3.586c.644 0 1.291-.835 1.58-1.26l.001.007.05-.083c.067-.102.105-.167.105-.167l.003-.019a70.91 70.91 0 0 0 1.693-3.162c1.112-2.182 2.178-4.916 2.178-4.916s.099.668.424 1.774c.191.65.597 1.369.918 2.059-.258.358-.416.563-.416.563l.004.011c-.206.274-.437.569-.679.857-.878 1.045-1.923 2.239-2.063 2.583-.165.406-.126.704.193.945.233.175.647.203 1.08.174a4.92 4.92 0 0 0 1.617-.368 5.426 5.426 0 0 0 1.39-.731c.861-.633 1.38-1.538 1.33-2.738-.028-.661-.238-1.316-.505-1.934l.235-.34c1.357-1.984 2.41-4.164 2.41-4.164s.099.668.424 1.774c.164.559.489 1.17.781 1.768-1.276 1.037-2.067 2.242-2.342 3.032-.508 1.462-.11 2.124.636 2.275.338.068.816-.087 1.175-.239a5.438 5.438 0 0 0 1.486-.764c.861-.633 1.689-1.519 1.639-2.718-.023-.546-.171-1.088-.372-1.608 1.082-.451 2.482-.701 4.266-.493 3.827.447 4.577 2.836 4.434 3.836-.144 1-.946 1.55-1.215 1.716-.268.166-.35.224-.328.347.033.179.157.173.386.134.315-.053 2.009-.813 2.082-2.659.091-2.346-2.154-4.92-6.131-4.899zM10.37 35.9c-1.268 1.383-3.038 1.905-3.798 1.465-.82-.475-.495-2.511 1.06-3.979.948-.894 2.172-1.718 2.984-2.225l.786-.472.086-.048-.001-.002.196-.118c.567 2.089.018 3.928-1.313 5.379zm9.235-6.277c-.441 1.076-1.365 3.83-1.928 3.682-.483-.127-.777-2.22-.096-4.28.342-1.037 1.074-2.276 1.504-2.757.692-.774 1.454-1.027 1.639-.713.235.4-.842 3.393-1.119 4.068zm7.629 3.64c-.187.098-.359.159-.438.112-.059-.035.077-.164.077-.164s.954-1.027 1.33-1.494c.219-.272.472-.595.748-.955l.003.107c-.002 1.23-1.19 2.06-1.72 2.394zm5.877-1.34c-.14-.099-.116-.42.343-1.421.18-.393.592-1.054 1.306-1.686.083.26.133.509.132.741-.009 1.548-1.113 2.126-1.781 2.366z"/></symbol><symbol id="icon-gulp" viewBox="0 0 32 32"><path fill="#fa5252" d="M22.154 1a.14.14 0 0 0-.093.033l-3.715 4.412-.758 2.606a48.434 48.434 0 0 0-1.592-.024c-3.86 0-6.996.41-6.996.916 0 1.21 13.99 1.21 13.99 0 0-.375-1.675-.691-4.09-.841l.6-2.145 3.475-4.18.005-.006c.078-.08-.074-.324-.322-.537-.186-.16-.381-.239-.504-.234zm-4.851 8.076-.014.041c-.006.005-.006.012-.006.018 0 .075.303.136.672.136.37 0 .674-.061.674-.136l.012-.047c.097.035.15.075.15.121 0 .121-.375.22-.842.215-.454 0-.83-.092-.83-.213 0-.052.075-.1.184-.135zm5.61.344c-1.852.987-11.963.994-13.821.014l.822 7.232c.357-1.153 1.26-2.71 2.422-3.182.38-.156.768-.155 1.13.053.316.173.582.536.612.68.073.375-.12.523-.271.523-.182 0-.321-.264-.412-.42-.248-.42-.624-.439-1.024-.162-.418.288-.781.773-1.035 1.194a6.631 6.631 0 0 0-.727 1.625c-.09.323-.174.84-.035 1.146.061.127.151.207.297.207.303 0 .743-.38.955-.582.272-.259.623-.663.756-.922l.316-.892c.157-.392.598-.323.598 0 0 .588-.222.784-.603 2-.351 1.124-.461 1.488-.461 1.488-.042.16-.206.432-.381.432-.073 0-.126-.025-.156-.07-.061-.082-.055-.304-.05-.362.013-.184.381-1.28.442-1.453a7.36 7.36 0 0 1-.387.38c-.327.295-.852.68-1.3.68a.762.762 0 0 1-.465-.138l.459 4.588c.12.288 2.373.986 5.338.986 2.97 0 5.22-.703 5.336-.986l.66-5.452c-.345.3-.744.67-1.186.854-.327.133-1.053.218-1.053-.33 0-.3.552-.852.872-1.238.085-.098.283-.34.283-.467 0-.167-.362-.129-.707.142a3.373 3.373 0 0 0-.528.56c-.26.347-.398.645-.513.893-.375.818-.248.496-.551 1.268-.303.767-.254.68-.315.807a.565.565 0 0 1-.242.26.38.38 0 0 1-.369-.018c-.054-.035-.08-.11-.08-.213 0-.052.008-.104.02-.156.09-.352.472-1.043.908-1.977.097-.213.06-.15.047-.133-.375.346-.66.514-.871.606-.351.15-.787.15-.877-.237-.006-.023-.006-.047-.012-.07-.714.53-1.47.674-1.21-.467-.277.473-.763.86-1.357.86-.247 0-.429-.08-.519-.293-.139-.317.078-.86.277-1.373.103-.26.244-.57.432-.934.097-.196.253-.312.459-.26a.54.54 0 0 1 .098.041c.157.104.096.258.017.414-.23.432-.43.75-.562 1.2-.054.19-.122.52.09.52a.728.728 0 0 0 .417-.14c.278-.196.502-.489.672-.777a3.85 3.85 0 0 0 .34-.709c.03-.098.068-.19.11-.277.067-.144.156-.293.314-.293.079 0 .144.029.193.086.103.127.08.257.026.396-.121.323-.284.612-.418.963-.08.202-.164.461-.164.674 0 .196.224.15.412.068.145-.063.29-.16.412-.257.073-.282.054-.22 1.598-3.932.079-.19.224-.272.369-.272a.34.34 0 0 1 .193.065c.103.075.105.234.063.355-.042.11-.038.076-.274.606-.315.697-.52 1.2-.799 1.84-.115.265-.465 1.089-.525 1.285-.036.127-.08.334.06.334.328 0 1.169-.756 1.399-.98.012-.018.03-.024.055-.036.036-.11.071-.212.101-.316.085-.22.164-.475.322-.653.048-.058.103-.091.163-.091.169 0 .253.068.253.23 0 .063-.04.295-.066.358.085-.086.175-.172.272-.258.908-.801 1.554-.393 1.554.011 0 .426-.538 1.02-.834 1.348-.097.11-.296.311-.302.37 0 .074.053.105.132.105.121 0 .388-.203.485-.272.303-.225.713-.57 1.004-.812l.896-7.885zM10.93 24.03l.902 1.465.352 4.576c0 .513 1.712.928 3.818.928s3.818-.415 3.818-.928l.28-4.623.851-1.418c-2.397.963-7.527.997-10.021 0z"/></symbol><symbol id="icon-js" viewBox="0 0 48 48"><path fill="#ffd600" d="M6 42V6h36v36H6z"/><path fill="#000001" d="M29.538 32.947c.692 1.124 1.444 2.201 3.037 2.201 1.338 0 2.04-.665 2.04-1.585 0-1.101-.726-1.492-2.198-2.133l-.807-.344c-2.329-.988-3.878-2.226-3.878-4.841 0-2.41 1.845-4.244 4.728-4.244 2.053 0 3.528.711 4.592 2.573l-2.514 1.607c-.553-.988-1.151-1.377-2.078-1.377-.946 0-1.545.597-1.545 1.377 0 .964.6 1.354 1.985 1.951l.807.344C36.452 29.645 38 30.839 38 33.523 38 36.415 35.716 38 32.65 38c-2.999 0-4.702-1.505-5.65-3.368l2.538-1.685zm-11.586.082c.506.906 1.275 1.603 2.381 1.603 1.058 0 1.667-.418 1.667-2.043V22h3.333v11.101c0 3.367-1.953 4.899-4.805 4.899-2.577 0-4.437-1.746-5.195-3.368l2.619-1.603z"/></symbol><symbol id="icon-tailwindcss" viewBox="0 0 48 48"><path fill="#00acc1" d="M24 9.604c-6.4 0-10.4 3.199-12 9.597 2.4-3.199 5.2-4.398 8.4-3.599 1.826.456 3.131 1.781 4.576 3.247C27.328 21.236 30.051 24 36 24c6.4 0 10.4-3.199 12-9.598-2.4 3.199-5.2 4.399-8.4 3.6-1.825-.456-3.13-1.781-4.575-3.247C32.672 12.367 29.948 9.604 24 9.604zM12 24c-6.4 0-10.4 3.199-12 9.598 2.4-3.199 5.2-4.399 8.4-3.599 1.825.457 3.13 1.781 4.575 3.246 2.353 2.388 5.077 5.152 11.025 5.152 6.4 0 10.4-3.199 12-9.598-2.4 3.199-5.2 4.399-8.4 3.599-1.826-.456-3.131-1.781-4.576-3.246C20.672 26.764 17.949 24 12 24z"/></symbol><symbol id="icon-npm" viewBox="0 0 32 32"><path fill="#cb3837" style="fill:var(--color1,#cb3837)" d="M0 9.779v10.667h8.888v1.776H16v-1.776h16V9.779zm8.888 8.885H7.112v-5.333h-1.78v5.333H1.78v-7.108h7.108zm5.333 0v1.781h-3.553v-8.889h7.112v7.109h-3.559zm16.002 0H28.45v-5.333h-1.781v5.333h-1.78v-5.333h-1.773v5.333h-3.561v-7.108h10.669zM14.22 13.333H16v3.556h-1.78z"/></symbol><symbol id="icon-git" viewBox="0 0 32 32"><path fill="#f05032" style="fill:var(--color1,#f05032)" d="M31.395 14.573 17.423.602a2.065 2.065 0 0 0-2.917 0l-2.895 2.9 3.68 3.68a2.452 2.452 0 0 1 3.103 3.121l3.544 3.547a2.451 2.451 0 0 1 2.533 4.052 2.449 2.449 0 0 1-3.467 0 2.46 2.46 0 0 1-.539-2.661l-3.319-3.301v8.7c.235.115.456.271.651.464a2.463 2.463 0 0 1 0 3.467 2.46 2.46 0 0 1-3.479 0 2.445 2.445 0 0 1 0-3.464c.243-.24.516-.421.807-.541v-8.785a2.433 2.433 0 0 1-.8-.535 2.445 2.445 0 0 1-.528-2.679l-3.616-3.633L.6 14.509c-.8.807-.8 2.112 0 2.919l13.973 13.969a2.061 2.061 0 0 0 2.915 0L31.395 17.49a2.059 2.059 0 0 0 0-2.916z"/></symbol><symbol id="icon-location" viewBox="0 0 32 32"><path d="M16 0C10.477 0 6 4.477 6 10c0 10 10 22 10 22s10-12 10-22c0-5.523-4.477-10-10-10zm0 16a6 6 0 1 1 0-12 6 6 0 0 1 0 12z"/></symbol><symbol id="icon-envelope" viewBox="0 0 32 32"><path d="M29 4H3a3 3 0 0 0-3 3v18a3 3 0 0 0 3 3h26a3 3 0 0 0 3-3V7a3 3 0 0 0-3-3zM2.741 25.99l-.731-.732 8.249-8.248.731.732-8.249 8.248zm26.518 0-8.249-8.248.731-.732 8.249 8.248-.731.732zM17 19.325V20h-2v-.675L2.003 7.275l1.272-1.272L16 17.801 28.725 6.003l1.272 1.272L17 19.325z"/></symbol><symbol id="icon-chat" viewBox="0 0 32 32"><path d="M25.785 4.952H6.215a2.237 2.237 0 0 0-2.236 2.236v12.488a2.237 2.237 0 0 0 2.236 2.236h3.729l.001 5.137 5.704-5.137h10.137a2.236 2.236 0 0 0 2.236-2.236V7.188a2.237 2.237 0 0 0-2.237-2.236zM10 13.969a1 1 0 1 1 0-2 1 1 0 0 1 0 2zm4-.042a1 1 0 1 1 0-2 1 1 0 0 1 0 2zm4.02.021a1 1 0 1 1 0-2 1 1 0 0 1 0 2zm3.98.021a1 1 0 1 1 0-2 1 1 0 0 1 0 2z"/></symbol><symbol id="icon-postman" viewBox="0 0 32 32"><path fill="#ff6c37" style="fill:var(--color1,#ff6c37)" d="M18.036.132C9.273-.992 1.256 5.2.132 13.964c-1.124 8.763 5.067 16.779 13.831 17.904 8.764 1.124 16.783-5.068 17.904-13.832C32.992 9.273 26.802 1.257 18.036.132zm3.295 9.98a1.14 1.14 0 0 0-.791.333l-5.937 5.937-1.267-1.267c5.852-5.835 6.907-5.891 7.995-5.004zm-6.484 6.481 5.92-5.92a.827.827 0 1 1 1.131 1.204l-.001.001-6.265 5.5zm.44.926-1.467.317a.082.082 0 0 1-.09-.042.078.078 0 0 1 .013-.097l.86-.86zm-3.738-.612 1.563-1.563 1.172 1.171-2.639.568a.097.097 0 0 1-.113-.052v-.001a.093.093 0 0 1-.015-.052c0-.029.013-.054.032-.072zm-4.861 8.077a.101.101 0 0 1-.092-.101v-.01a.103.103 0 0 1 .029-.061h.003l1.261-1.261 1.629 1.629zm3.233-1.675a.305.305 0 0 0-.155.343v-.002l.271 1.153a.167.167 0 0 1-.281.157h-.004l-1.637-1.639 5.016-5.011 2.427-.524 1.165 1.165c-1.673 1.469-3.961 2.935-6.8 4.357zm7.039-4.57h-.003l-1.119-1.119 6.265-5.5a1.3 1.3 0 0 0 .157-.167l.002-.003c-.197 1.793-2.705 4.327-5.303 6.788zm4.876-8.614-.004-.003a2.429 2.429 0 0 1 3.283-3.576l-.004-.003-2.147 2.151a.16.16 0 0 0 0 .226l1.663 1.663a2.394 2.394 0 0 1-1.077.253 2.412 2.412 0 0 1-1.713-.71zm3.437 0a2.258 2.258 0 0 1-.353.285l-.009.005h-.001l-1.609-1.609 2.044-2.044a2.43 2.43 0 0 1-.072 3.363zm-.133-2.058a.19.19 0 0 0-.071.21v-.001a.55.55 0 0 1-.072.601l.001-.001a.187.187 0 0 0 .031.262.188.188 0 0 0 .112.04.188.188 0 0 0 .141-.066.916.916 0 0 0 .113-1.006l.002.005a.185.185 0 0 0-.259-.044h.001z"/></symbol><symbol id="icon-mysql" viewBox="0 0 32 32"><path fill="#4479a1" style="fill:var(--color1,#4479a1)" d="M21.873 7.568c-.153 0-.257.019-.365.044v.017h.019c.072.139.195.24.285.364.072.143.133.285.205.427l.019-.02c.125-.088.187-.229.187-.444-.053-.063-.061-.125-.107-.187-.053-.089-.168-.133-.243-.201zM7.693 25.16H6.457a67.797 67.797 0 0 0-.36-5.88h-.011l-1.88 5.88h-.94l-1.867-5.88h-.013a97.463 97.463 0 0 0-.26 5.88H-.001c.073-2.621.256-5.08.547-7.373h1.533l1.78 5.419h.011l1.796-5.419h1.46c.323 2.687.512 5.147.567 7.373zm5.356-5.44c-.504 2.727-1.168 4.711-1.989 5.947-.643.955-1.347 1.431-2.111 1.431-.204 0-.453-.061-.755-.184v-.659c.147.023.32.035.515.035.357 0 .644-.1.863-.296.263-.24.393-.509.393-.807 0-.207-.103-.627-.307-1.259L8.306 19.72h1.213l.969 3.147c.219.715.311 1.213.273 1.497.533-1.419.904-2.969 1.113-4.644zm16.434 5.44h-3.507v-7.373h1.18v6.467h2.327zm-4.427.18-1.355-.667c.12-.101.236-.211.34-.333.577-.675.864-1.677.864-3.004 0-2.44-.957-3.661-2.873-3.661-.939 0-1.672.309-2.2.929-.573.677-.861 1.675-.861 2.993 0 1.296.253 2.248.765 2.853.467.547 1.169.82 2.111.82.352 0 .675-.044.967-.131l1.767 1.029zm-4.389-1.656c-.3-.48-.449-1.253-.449-2.315 0-1.857.565-2.787 1.693-2.787.591 0 1.027.223 1.303.667.299.483.448 1.248.448 2.297 0 1.872-.565 2.811-1.693 2.811-.593 0-1.027-.223-1.301-.673zm-2.211-.567c0 .627-.229 1.141-.688 1.541s-1.071.6-1.845.6c-.724 0-1.419-.229-2.097-.687l.316-.635c.584.293 1.111.437 1.587.437.443 0 .791-.097 1.044-.293.251-.196.4-.472.4-.82 0-.44-.307-.813-.864-1.127-.517-.284-1.551-.876-1.551-.876-.563-.409-.843-.848-.843-1.569 0-.6.209-1.08.627-1.447.42-.371.96-.553 1.627-.553.683 0 1.307.181 1.867.547l-.284.635a3.628 3.628 0 0 0-1.419-.307c-.377 0-.669.091-.872.275a.912.912 0 0 0-.331.699c0 .437.312.813.888 1.133a138.1 138.1 0 0 1 1.583.893c.577.407.864.84.856 1.553zm12.509-7.802c-.713-.019-1.267.053-1.729.251-.133.053-.347.053-.365.223.073.071.084.187.147.285.107.179.291.417.461.543.187.147.373.288.569.413.347.213.74.34 1.08.555.193.125.391.284.587.417.097.067.16.187.285.229v-.027c-.061-.08-.08-.196-.14-.285-.089-.089-.179-.169-.267-.257a4.299 4.299 0 0 0-.927-.9c-.285-.195-.909-.467-1.027-.793l-.017-.019c.195-.017.427-.088.613-.141.303-.08.58-.063.893-.141.141-.036.284-.08.427-.125v-.08c-.16-.16-.28-.377-.445-.527a11.796 11.796 0 0 0-1.472-1.097c-.28-.179-.635-.293-.929-.445-.107-.053-.285-.08-.347-.169-.16-.195-.253-.453-.367-.685a23.176 23.176 0 0 1-.729-1.551c-.16-.349-.257-.697-.453-1.017-.92-1.516-1.916-2.435-3.448-3.333-.329-.187-.724-.267-1.141-.365-.223-.011-.445-.027-.667-.036-.147-.063-.288-.232-.413-.313-.507-.32-1.819-1.013-2.192-.096-.24.579.356 1.149.563 1.443.153.204.347.437.453.667.063.155.08.313.143.475.141.392.276.829.463 1.196.097.187.204.383.329.551.072.097.195.143.223.303-.125.181-.133.445-.205.667-.32 1.009-.195 2.257.259 3 .143.221.483.712.937.524.4-.16.312-.667.427-1.113.027-.107.009-.177.064-.249v.02c.125.251.251.489.365.74.275.437.755.891 1.156 1.193.213.16.383.437.649.536v-.027h-.02c-.057-.077-.133-.115-.205-.177-.16-.16-.34-.356-.467-.533a11.68 11.68 0 0 1-.996-1.624c-.147-.28-.269-.581-.387-.857-.053-.107-.053-.267-.143-.32-.133.195-.329.364-.427.604-.169.384-.187.856-.251 1.347-.036.009-.019 0-.036.019-.285-.069-.383-.365-.489-.613-.267-.633-.311-1.651-.08-2.38.063-.187.329-.776.223-.955-.056-.169-.232-.267-.329-.404a3.3 3.3 0 0 1-.32-.569c-.213-.499-.32-1.051-.552-1.549-.107-.231-.293-.472-.445-.684-.169-.24-.356-.409-.491-.693-.044-.097-.107-.259-.036-.365.019-.072.056-.1.125-.12.117-.096.447.029.563.083.329.133.607.259.883.445.125.088.26.257.42.301h.187c.285.063.607.019.873.097.473.152.9.373 1.283.613a7.933 7.933 0 0 1 2.78 3.048c.107.205.153.393.251.607.187.44.417.884.607 1.309.187.42.367.848.635 1.196.133.187.669.284.909.381.177.08.453.153.613.251.307.187.605.4.893.605.147.101.591.324.617.504z"/></symbol><symbol id="icon-mail-checked" viewBox="0 0 32 32"><path d="M20.135 16.83 18 15l5.923-5.077-.808-.808L14.5 16.5 5.885 9.115l-.808.808L11 15l-5.923 5.077.808.808 5.99-5.135L14.5 18l2.625-2.25 2.441 2.093A6.474 6.474 0 0 0 19 20.5c0 .886.177 1.73.498 2.5H4.003a1.995 1.995 0 0 1-2.004-1.994V8.994A2 2 0 0 1 4.003 7h20.993C26.11 7 27 7.893 27 8.994v5.18A6.509 6.509 0 0 0 25.5 14a6.492 6.492 0 0 0-5.365 2.83zM25.5 26a5.5 5.5 0 1 0 0-11 5.5 5.5 0 1 0 0 11zm-.5-2.757-2.354-2.354.732-.732 1.621 1.621 3.121-3.121.732.732-3.854 3.854z"/></symbol><symbol id="icon-mail-error" viewBox="0 0 32 32"><path d="M21.532 18.028 18 15l5.923-5.077-.808-.808L14.5 16.5 5.885 9.115l-.808.808L11 15l-5.923 5.077.808.808 5.99-5.135L14.5 18l2.625-2.25 3.819 3.274L18.597 23H4.003a1.995 1.995 0 0 1-2.004-1.994V8.994A2 2 0 0 1 4.003 7h20.993C26.11 7 27 7.893 27 8.994v8.241L24.5 13l-2.968 5.028zM24.5 15 31 26H18l6.5-11zm-.5 4v3h1v-3h-1zm0 4v1h1v-1h-1z"/></symbol><symbol id="icon-external-link" viewBox="0 0 24 24"><path d="M17 13v6c0 .276-.111.525-.293.707S16.276 20 16 20H5c-.276 0-.525-.111-.707-.293S4 19.276 4 19V8c0-.276.111-.525.293-.707S4.724 7 5 7h6a1 1 0 0 0 0-2H5a2.997 2.997 0 0 0-3 3v11a2.997 2.997 0 0 0 3 3h11a2.997 2.997 0 0 0 3-3v-6a1 1 0 0 0-2 0zm-6.293 1.707L20 5.414V9a1 1 0 0 0 2 0V3a.995.995 0 0 0-.292-.706l-.002-.002A.996.996 0 0 0 21 2h-6a1 1 0 0 0 0 2h3.586l-9.293 9.293a.999.999 0 1 0 1.414 1.414z"/></symbol><symbol id="icon-quotes-right" viewBox="0 0 32 32"><path d="M7.031 14a7 7 0 1 1-7 7L0 20C0 12.268 6.268 6 14 6v4a9.934 9.934 0 0 0-7.071 2.929 10.24 10.24 0 0 0-.995 1.157A7.081 7.081 0 0 1 7.031 14zm18 0a7 7 0 1 1-7 7L18 20c0-7.732 6.268-14 14-14v4a9.934 9.934 0 0 0-7.071 2.929 10.24 10.24 0 0 0-.995 1.157A7.09 7.09 0 0 1 25.031 14z"/></symbol><symbol id="icon-quotes-left" viewBox="0 0 32 32"><path d="M25 20a7 7 0 1 1 7-7l.031 1c0 7.732-6.268 14-14 14v-4a9.934 9.934 0 0 0 7.071-2.929c.364-.364.695-.75.995-1.157A7.081 7.081 0 0 1 25 20zM7 20a7 7 0 1 1 7-7l.031 1c0 7.732-6.268 14-14 14v-4a9.934 9.934 0 0 0 7.071-2.929c.364-.364.695-.75.995-1.157A7.081 7.081 0 0 1 7 20z"/></symbol></defs></svg>