<svg id="visual" viewBox="0 0 900 100" width="900" height="100" xmlns="http://www.w3.org/2000/svg" xmlns:xlink="http://www.w3.org/1999/xlink" version="1.1"><path d="M0 53L50 80L100 64L150 68L200 82L250 72L300 54L350 85L400 88L450 74L500 68L550 55L600 70L650 78L700 49L750 53L800 55L850 69L900 80L900 0L850 0L800 0L750 0L700 0L650 0L600 0L550 0L500 0L450 0L400 0L350 0L300 0L250 0L200 0L150 0L100 0L50 0L0 0Z" fill="#18161f"></path><path d="M0 73L50 71L100 38L150 46L200 56L250 43L300 61L350 68L400 73L450 72L500 57L550 56L600 54L650 43L700 35L750 71L800 50L850 42L900 47L900 0L850 0L800 0L750 0L700 0L650 0L600 0L550 0L500 0L450 0L400 0L350 0L300 0L250 0L200 0L150 0L100 0L50 0L0 0Z" fill="#071114"></path><path d="M0 12L50 48L100 32L150 24L200 28L250 1L300 26L350 48L400 28L450 48L500 12L550 47L600 15L650 30L700 0L750 42L800 39L850 33L900 45L900 0L850 0L800 0L750 0L700 0L650 0L600 0L550 0L500 0L450 0L400 0L350 0L300 0L250 0L200 0L150 0L100 0L50 0L0 0Z" fill="#020403"></path></svg>